<?xml version="1.0" standalone="no"?>
<!DOCTYPE svg PUBLIC "-//W3C//DTD SVG 1.1//EN" "http://www.w3.org/Graphics/SVG/1.1/DTD/svg11.dtd" >
<svg xmlns="http://www.w3.org/2000/svg">
<metadata></metadata>
<defs>
<font id="keep_calmmedium" horiz-adv-x="1406" >
<font-face units-per-em="2048" ascent="1638" descent="-410" />
<missing-glyph horiz-adv-x="645" />
<glyph horiz-adv-x="0" />
<glyph unicode="&#xd;" horiz-adv-x="2048" />
<glyph horiz-adv-x="0" />
<glyph horiz-adv-x="0" />
<glyph unicode="&#x9;" horiz-adv-x="2048" />
<glyph unicode="&#xa;" horiz-adv-x="2048" />
<glyph horiz-adv-x="2048" />
<glyph horiz-adv-x="2048" />
<glyph horiz-adv-x="2048" />
<glyph horiz-adv-x="2048" />
<glyph horiz-adv-x="2048" />
<glyph unicode=" "  horiz-adv-x="645" />
<glyph unicode="&#x09;" horiz-adv-x="645" />
<glyph unicode="&#xa0;" horiz-adv-x="645" />
<glyph unicode="!" horiz-adv-x="559" d="M123 1638h354l-86 -1183h-182zM147 0v305h306v-305h-306z" />
<glyph unicode="&#x22;" horiz-adv-x="829" d="M61 1700h316l-60 -586h-196zM463 1700h315l-59 -586h-197z" />
<glyph unicode="#" horiz-adv-x="1544" d="M82 430v242h242l61 295h-303v237h350l92 432h244l-88 -432h346l92 432h240l-88 -432h192v-237h-243l-60 -295h303v-242h-352l-92 -430h-244l90 430h-346l-90 -430h-246l90 430h-190zM567 672h348l62 295h-348z" />
<glyph unicode="$" horiz-adv-x="1236" d="M82 174l178 211q131 -113 295 -131v432l-16 6q-84 29 -161 71t-137.5 103.5t-96 144.5t-35.5 191q0 92 34.5 172t94 140.5t138.5 99.5t169 51v131h186v-131q229 -35 369 -172l-178 -207q-45 47 -95.5 71.5t-105.5 35.5v-424v-11q229 -78 331.5 -205.5t102.5 -320.5 q0 -80 -32.5 -155.5t-89 -137t-134.5 -103.5t-168 -56v-3v-192h-186v190q-76 4 -138.5 17.5t-118 38t-105.5 60.5t-101 83zM418 1214q0 -68 28.5 -109.5t108.5 -80.5v358q-57 -23 -97 -66.5t-40 -101.5zM721 266q57 23 90 67t33 95q0 59 -25.5 103t-97.5 85v-350z" />
<glyph unicode="%" horiz-adv-x="1912" d="M82 1262q0 84 32.5 158.5t88 130t130.5 88t159 32.5t158.5 -32.5t130 -88t88 -130t32.5 -158.5t-32.5 -159t-88 -130t-130.5 -88t-158 -33q-84 0 -159 33t-130.5 88t-88 130t-32.5 159zM250 -94l1098 1732h256l-1098 -1732h-256zM328 1262q0 -68 48 -116t116 -48 t115.5 48t47.5 116t-48 115.5t-115 47.5q-68 0 -116 -48t-48 -115zM1012 373q0 86 31.5 160.5t87 130t130 87t160.5 31.5q84 0 159 -31.5t130 -87t88 -130t33 -160.5q0 -84 -33 -159t-88 -130t-130 -88t-159 -33q-86 0 -160.5 33t-130 88t-87 130t-31.5 159zM1257 373 q0 -68 48.5 -116t115.5 -48q68 0 116 48t48 116t-48 116t-116 48t-116 -48.5t-48 -115.5z" />
<glyph unicode="&#x26;" horiz-adv-x="1529" d="M164 473q0 135 76.5 237.5t224.5 194.5q-92 111 -131 191t-39 153q0 88 36 163t98.5 130t146 86t180.5 31q98 0 183 -33t147.5 -91t98.5 -136t36 -170q0 -121 -78 -211t-242 -187l227 -262q12 29 18.5 61t10.5 62h283q-10 -106 -40 -197.5t-67 -154.5l156 -174l-197 -197 l-139 158q-47 -41 -92 -70.5t-97.5 -49t-118 -29t-151.5 -9.5q-111 0 -208 40t-168.5 107.5t-112.5 160t-41 196.5zM479 473q0 -45 18.5 -84t49.5 -68.5t73 -47t89 -17.5q63 0 121.5 14.5t132.5 71.5l-328 369q-86 -51 -121 -108.5t-35 -129.5zM584 1247q0 -35 16 -67.5 t57 -77.5l72 -76q92 41 154.5 96t62.5 131q0 68 -54 110t-126 42q-76 0 -129 -45t-53 -113z" />
<glyph unicode="'" horiz-adv-x="407" d="M51 1700h316l-60 -586h-198z" />
<glyph unicode="(" horiz-adv-x="776" d="M102 598q0 180 32 332.5t91.5 292t143.5 270.5t190 270h240q-96 -154 -165 -284.5t-114 -265t-65.5 -284t-20.5 -339.5q0 -328 94.5 -611.5t278.5 -545.5h-248q-106 135 -190 265t-143.5 270.5t-91.5 294t-32 335.5z" />
<glyph unicode=")" horiz-adv-x="776" d="M-31 1763h248q102 -129 186 -262t144.5 -275.5t93.5 -297t33 -328.5q0 -176 -32 -330.5t-92.5 -297t-144 -275.5t-188.5 -264h-242q96 154 166 285.5t114 266t65.5 283t21.5 336.5q0 328 -94 612.5t-279 546.5z" />
<glyph unicode="*" horiz-adv-x="993" d="M61 1094l105 47l121 69l-109 62l-117 51l119 209l109 -82l98 -59v125l-14 122h237l-16 -127v-125l104 62l113 84l121 -209l-129 -53l-105 -62l97 -57l137 -55l-121 -207l-102 78l-115 65v-121l16 -137h-237l14 133v123l-104 -61l-103 -80z" />
<glyph unicode="+" horiz-adv-x="1404" d="M123 616v306h436v460h305v-460h439v-306h-439v-460h-305v460h-436z" />
<glyph unicode="," horiz-adv-x="509" d="M123 0v305h305v-305q0 -49 -14.5 -93t-42 -78t-69.5 -53.5t-97 -19.5q-20 0 -40 4t-36 9v22q59 10 96 55t37 105q0 10 -2 24.5t-6 24.5h-131z" />
<glyph unicode="-" horiz-adv-x="765" d="M61 532v275h644v-275h-644z" />
<glyph unicode="." horiz-adv-x="518" d="M123 0v313h313v-313h-313z" />
<glyph unicode="/" horiz-adv-x="643" d="M-41 -117l473 1901h252l-473 -1901h-252z" />
<glyph unicode="0" horiz-adv-x="1622" d="M123 801q0 158 45 313.5t132 280.5t218 201.5t303 76.5t302 -77.5t218.5 -202.5t133.5 -280.5t45 -311.5q0 -152 -47.5 -301.5t-137.5 -267t-220 -190.5t-294 -73t-293 73t-219 190.5t-138 267t-48 301.5zM455 801q0 -86 20.5 -181.5t64.5 -177.5t113.5 -135t167.5 -53 t168 53t114 134t64.5 177.5t20.5 182.5t-17.5 188.5t-60.5 190.5t-113.5 147t-175.5 59q-100 0 -169.5 -60t-113.5 -149.5t-63.5 -191.5t-19.5 -184z" />
<glyph unicode="1" horiz-adv-x="868" d="M82 1182v268l582 217v-1667h-316v1284z" />
<glyph unicode="2" horiz-adv-x="1388" d="M82 0l631 748q37 45 74.5 94t67.5 99t49.5 100.5t19.5 97.5q0 111 -69 173t-169 62q-117 0 -206 -58.5t-150 -150.5l-221 219q109 137 246 211t339 74q106 0 205.5 -31.5t177.5 -95t125 -158t47 -217.5q0 -84 -22.5 -156.5t-60.5 -141t-89 -135t-106 -136.5l-234 -291 h549v-307h-1204z" />
<glyph unicode="3" horiz-adv-x="1476" d="M82 293l219 221q37 -51 86 -96t106.5 -79t122 -53.5t129.5 -19.5q55 0 105.5 15.5t88.5 45t61.5 73.5t23.5 104q0 76 -43 120t-107.5 66.5t-137 27.5t-130.5 5v229q55 0 123 6.5t126 28t98 64.5t40 114q0 53 -20.5 92t-54 65t-77.5 38t-93 12q-250 0 -392 -209l-221 219 q123 147 265.5 216t334.5 69q102 0 207 -31.5t190 -91t138 -148.5t53 -202q0 -57 -19.5 -109.5t-51 -96.5t-75.5 -80t-94 -60q55 -20 104.5 -55t86.5 -81t58.5 -100.5t21.5 -115.5q0 -129 -48.5 -228.5t-129 -166t-189 -100.5t-229.5 -34q-211 0 -376 80t-300 246z" />
<glyph unicode="4" horiz-adv-x="1423" d="M61 354v226l797 1056h272v-1009h232v-273h-232v-354h-313v354h-756zM401 629l416 -2v544z" />
<glyph unicode="5" horiz-adv-x="1421" d="M123 252l217 219q23 -29 54.5 -62.5t73.5 -62.5t94 -48t118 -19q74 0 134 21.5t104.5 58t69 88t24.5 110.5q0 66 -29 117t-77 87t-111.5 54.5t-132.5 18.5q-80 0 -149 -20.5t-140 -74.5l-160 164l80 735l919 -2v-278h-671l-37 -309q51 25 117.5 36t126.5 11 q129 0 237.5 -41t187 -114t122.5 -172t44 -216q0 -129 -48 -236.5t-130 -184.5t-191.5 -120t-232.5 -43q-180 0 -332.5 63.5t-281.5 219.5z" />
<glyph unicode="6" horiz-adv-x="1525" d="M143 817q0 190 48.5 347t135.5 268.5t211 173t277 61.5q174 0 303 -62.5t242 -197.5l-213 -215q-57 86 -138 137t-186 51q-70 0 -129 -31.5t-103 -88t-68.5 -132t-24.5 -161.5q55 43 137 69.5t158 26.5q123 0 233.5 -41t194.5 -113.5t133 -174t49 -224.5 q0 -104 -47 -201.5t-128 -173.5t-192.5 -121t-240.5 -45q-123 0 -240 44t-209 143.5t-147.5 261.5t-55.5 399zM481 526q0 -55 24.5 -104t66.5 -86t98.5 -58.5t117.5 -21.5q63 0 118 21.5t94.5 58.5t62 86t22.5 104t-22.5 104.5t-62 85.5t-94 57.5t-118.5 21.5 q-61 0 -117.5 -21.5t-98.5 -57.5t-66.5 -85t-24.5 -105z" />
<glyph unicode="7" horiz-adv-x="1210" d="M41 1358v280h1190l-744 -1638h-346l625 1358h-725z" />
<glyph unicode="8" horiz-adv-x="1515" d="M143 459q0 61 22.5 122.5t60.5 114t88.5 92t105.5 60.5q-49 25 -91 62.5t-74 83.5t-49.5 100.5t-17.5 111.5q0 113 54.5 200t140.5 145.5t192.5 88t208.5 29.5q104 0 208 -29.5t188 -88t136 -145.5t52 -200q0 -57 -17.5 -111.5t-49 -100.5t-73.5 -84t-91 -62 q55 -20 105 -60t88 -92.5t60.5 -114t22.5 -122.5q0 -129 -54 -222.5t-143.5 -152.5t-204 -88t-233.5 -29q-121 0 -235.5 29t-203.5 88t-142.5 152.5t-53.5 222.5zM471 496q0 -49 24.5 -92.5t65.5 -76t97.5 -51t119.5 -18.5t119.5 18.5t97.5 51t65.5 76t24.5 92.5t-24.5 91 t-65.5 74.5t-97 51t-120 18.5q-63 0 -119.5 -18.5t-97.5 -51t-65.5 -74.5t-24.5 -91zM516 1167q0 -43 20.5 -80.5t56.5 -66.5t83 -45.5t102 -16.5t102.5 16.5t83 45.5t56 66.5t20.5 80.5t-20.5 81t-56 66.5t-82.5 45t-103 16.5q-55 0 -102 -16.5t-83 -45t-56.5 -66.5 t-20.5 -81z" />
<glyph unicode="9" horiz-adv-x="1484" d="M123 1126q0 104 47 201.5t128 173.5t191.5 121t239.5 45q123 0 240.5 -44t210 -143.5t147.5 -262t55 -398.5q0 -190 -48 -347t-135 -268.5t-211 -173t-277 -61.5q-174 0 -303 62.5t-242 197.5l213 215q57 -86 138 -137t185 -51q70 0 129.5 33t103.5 89t68.5 132t24.5 160 q-55 -43 -137 -70t-158 -27q-123 0 -233.5 41t-194.5 114t-133 174.5t-49 223.5zM440 1110q0 -55 22.5 -104.5t62.5 -85t94.5 -57t117.5 -21.5q61 0 117.5 21.5t98.5 57t66.5 85t24.5 104.5t-24.5 104.5t-66.5 86t-98 58t-118 21.5q-63 0 -117.5 -21.5t-94.5 -58t-62.5 -86 t-22.5 -104.5z" />
<glyph unicode=":" horiz-adv-x="518" d="M123 0v313h313v-313h-313zM123 870v314h313v-314h-313z" />
<glyph unicode=";" horiz-adv-x="518" d="M123 870v314h313v-314h-313zM127 0v305h305v-305q0 -49 -14.5 -93t-42 -78t-69.5 -53.5t-97 -19.5q-20 0 -39.5 4t-36.5 9v22q59 10 96 55t37 105q0 10 -2 24.5t-6 24.5h-131z" />
<glyph unicode="&#x3c;" horiz-adv-x="1376" d="M102 655v246l1172 496v-295l-793 -324l793 -329v-293z" />
<glyph unicode="=" horiz-adv-x="1458" d="M143 387v275h1172v-275h-1172zM143 887v274h1172v-274h-1172z" />
<glyph unicode="&#x3e;" horiz-adv-x="1376" d="M102 156v293l793 325l-793 328v295l1172 -500v-246z" />
<glyph unicode="?" horiz-adv-x="1155" d="M82 1489q86 86 206 134t269 48q109 0 203 -31.5t163.5 -91t109.5 -142.5t40 -185q0 -80 -23.5 -147.5t-63.5 -124t-95 -100.5t-119 -75l-106 -49q-51 -23 -77 -59.5t-26 -112.5v-98h-293v100q0 94 12.5 158.5t37 108.5t63.5 74t92 54l94 43q117 53 156 111.5t39 116.5 q0 33 -16.5 65.5t-45 57t-70.5 40t-93 15.5q-78 0 -149 -26.5t-130 -90.5zM264 0v305h305v-305h-305z" />
<glyph unicode="@" horiz-adv-x="2363" d="M102 592q0 229 87 433t239 354.5t354.5 238.5t434.5 88q219 0 409.5 -77t331.5 -214t222 -326.5t81 -412.5q0 -117 -25.5 -215.5t-70.5 -178t-106.5 -141t-131.5 -102.5q-51 -29 -127 -47.5t-155 -18.5q-98 0 -178.5 45t-114.5 127q-61 -86 -161.5 -131t-213.5 -45 q-92 0 -173 34t-141.5 97.5t-95.5 151.5t-35 199q0 137 51.5 273t137.5 244.5t201.5 177t244.5 68.5q80 0 155 -25.5t130 -90.5l18 86h267l-170 -840q-16 -86 16.5 -126t91.5 -40q78 0 145.5 32t119 94.5t80 156.5t28.5 219q0 172 -63.5 320.5t-176 257t-264 171 t-327.5 62.5q-186 0 -350.5 -70.5t-286 -192.5t-192.5 -286t-71 -350t71 -350t192.5 -286t285.5 -192.5t351 -70.5q154 0 274.5 41t202.5 94l153 -145q-119 -86 -281.5 -144.5t-348.5 -58.5q-231 0 -434 87t-355 238.5t-239 353t-87 433.5zM827 475q0 -139 57.5 -201.5 t131.5 -62.5q39 0 81 11t81 35t72.5 61.5t56.5 91.5l96 462q-35 53 -94.5 81t-128.5 28q-86 0 -151.5 -51t-110 -127t-68 -165t-23.5 -163z" />
<glyph unicode="A" horiz-adv-x="1816" d="M20 0l775 1638h247l775 -1638h-349l-151 328h-795l-153 -328h-349zM643 592h549l-272 590z" />
<glyph unicode="B" horiz-adv-x="1392" d="M164 0v1638h590q106 0 197 -31.5t159 -92t105.5 -147.5t37.5 -196q0 -92 -41 -178t-108 -145q53 -27 95 -68t71.5 -91t45 -106.5t15.5 -113.5q0 -102 -42 -189t-111.5 -149.5t-160.5 -97.5t-192 -35zM481 264h238q51 0 102 12.5t91 40t64.5 69.5t24.5 101q0 51 -19 94.5 t-53 73t-78 46t-95 16.5q-47 1 -92 1h-46q-68 -1 -137 -1v-453zM481 946q51 -2 92 -2h95q53 0 102 12.5t87 39t60.5 68.5t22.5 101q0 57 -22.5 101.5t-60.5 73t-87 43t-102 14.5h-187v-451z" />
<glyph unicode="C" horiz-adv-x="1662" d="M102 819q0 178 69 333t187.5 270.5t278.5 181t342 65.5q211 0 386 -88t292 -229l-219 -226q-76 111 -196 176.5t-263 65.5q-115 0 -216 -44t-177 -119t-120 -174t-44 -212q0 -111 44 -210t120 -174t177 -119t216 -44q154 0 269.5 69t193.5 181l221 -227 q-123 -150 -298 -238t-386 -88q-182 0 -342 66.5t-278.5 181.5t-187.5 269.5t-69 332.5z" />
<glyph unicode="D" horiz-adv-x="1701" d="M164 0v1638h684q168 0 310 -64.5t244.5 -176t160 -261t57.5 -317.5q0 -170 -57.5 -318.5t-160 -260t-244.5 -176t-310 -64.5h-684zM481 270h277q113 0 212 45t171.5 122t114.5 178t42 212q0 104 -42 206t-114.5 180.5t-172 127t-211.5 48.5h-277v-1119z" />
<glyph unicode="E" horiz-adv-x="1327" d="M164 0v1636h1081v-262h-770v-391h760v-256h-760v-451h770v-276h-1081z" />
<glyph unicode="F" horiz-adv-x="1286" d="M164 0v1636h1081v-272h-770v-381h760v-258h-760v-725h-311z" />
<glyph unicode="G" horiz-adv-x="1753" d="M102 821q0 176 69 331t188.5 269.5t279.5 181t342 66.5q211 0 383 -86t295 -229l-215 -219q-92 125 -207 179t-256 54q-117 0 -219.5 -43t-179 -117.5t-120.5 -174t-44 -212.5q0 -115 44 -214t120.5 -175t179 -119t219.5 -43q111 0 209 41t176 109v158h-336v270h641v-547 q-70 -86 -151.5 -148.5t-170.5 -103.5t-182.5 -60.5t-185.5 -19.5q-182 0 -342 65.5t-278.5 180.5t-188.5 270.5t-70 335.5z" />
<glyph unicode="H" horiz-adv-x="1587" d="M164 0v1636h317v-649h645v649h318v-1636h-318v725h-645v-725h-317z" />
<glyph unicode="I" horiz-adv-x="624" d="M164 0v1636h317v-1636h-317z" />
<glyph unicode="J" horiz-adv-x="1189" d="M41 209l209 207q41 -66 106.5 -103t135.5 -37q47 0 92 17.5t80.5 50.5t57 80t21.5 108v1104h324v-1087q0 -166 -58.5 -276.5t-142.5 -178t-179 -96.5t-171 -29q-141 0 -265 64.5t-210 175.5z" />
<glyph unicode="K" horiz-adv-x="1529" d="M164 0v1638h317v-731l670 731h377l-740 -804l762 -834h-413l-656 725v-725h-317z" />
<glyph unicode="L" horiz-adv-x="1292" d="M164 0v1636h323v-1329h785v-307h-1108z" />
<glyph unicode="M" horiz-adv-x="1941" d="M164 0v1638h358l455 -813l475 813h346v-1638h-311v1094l-516 -871l-496 879v-1102h-311z" />
<glyph unicode="N" horiz-adv-x="1669" d="M164 0v1638h356l694 -1069v1069h312v-1638h-312l-739 1149v-1149h-311z" />
<glyph unicode="O" horiz-adv-x="1923" d="M102 819q0 178 69 334t187.5 270.5t277.5 180t337 65.5t335.5 -65.5t276.5 -181t187.5 -270.5t68.5 -333q0 -176 -68.5 -331.5t-187.5 -270.5t-276.5 -181.5t-335.5 -66.5t-337 66.5t-277.5 181.5t-187.5 269.5t-69 332.5zM422 819q0 -111 43 -211t117.5 -175t175 -119 t215.5 -44q113 0 213 44t175 119t118 175t43 211q0 113 -43 212t-118 174t-175.5 119t-212.5 44q-115 0 -215.5 -44t-175 -119t-117.5 -174t-43 -212z" />
<glyph unicode="P" horiz-adv-x="1351" d="M164 0v1636h588q115 0 217 -42t178 -115.5t120 -174t44 -217.5t-44 -218t-120 -176t-178.5 -116.5t-216.5 -41.5h-271v-535h-317zM481 778h211q63 0 118.5 25.5t96.5 68.5t64.5 100t23.5 120t-23.5 118.5t-64.5 96.5t-96 65.5t-119 24.5h-211v-619z" />
<glyph unicode="Q" horiz-adv-x="1910" d="M102 819q0 176 68 331t185.5 270.5t274 182t335.5 66.5q178 0 335.5 -66.5t275.5 -182t185.5 -270.5t67.5 -331q0 -147 -46 -275t-132 -239l164 -162l-189 -188l-168 170q-104 -72 -228 -113t-265 -41q-178 0 -335 66.5t-274.5 182.5t-185.5 269.5t-68 329.5zM412 819 q0 -113 43 -213t118.5 -175t176 -119t215.5 -44q78 0 148.5 20.5t133.5 57.5l-153 150l188 188l152 -156q86 131 86 291q0 113 -44 213.5t-119 176t-176.5 119.5t-215.5 44q-115 0 -215.5 -44t-176 -119.5t-118.5 -176t-43 -213.5z" />
<glyph unicode="R" horiz-adv-x="1427" d="M164 0v1636l647 2q104 0 194.5 -35.5t156 -99t102 -149.5t36.5 -187q0 -72 -22.5 -139t-63 -124.5t-97 -101.5t-124.5 -67q78 -29 127 -83t78 -130q29 -70 53.5 -141.5t61.5 -179.5q23 -68 42 -116t42 -85h-350l-117 373q-18 61 -45 112.5t-67 88t-94 57t-128 20.5h-119 v-651h-313zM477 895h230q57 0 107 17.5t87 50t58.5 79t21.5 103.5t-21.5 104t-58.5 82t-87 54.5t-107 19.5h-230v-510z" />
<glyph unicode="S" horiz-adv-x="1318" d="M82 190l225 228q98 -82 192.5 -116t205.5 -34q45 0 84.5 13.5t69.5 36t47.5 53t17.5 67.5q0 39 -14.5 70t-51.5 59.5t-102.5 58t-167.5 66.5q-90 33 -173 75t-145.5 101.5t-100.5 139t-38 188.5q0 104 42 192.5t114.5 151t170 97t210.5 34.5q188 0 317 -49t229 -143 l-221 -224q-61 59 -136 91t-179 32q-47 0 -87 -14t-68.5 -37.5t-46 -55.5t-17.5 -67q0 -39 16.5 -70.5t55 -61.5t103 -59.5t161.5 -64.5q123 -43 211 -93t143 -112.5t81.5 -139.5t26.5 -173q0 -92 -39.5 -175t-111.5 -146.5t-170 -101.5t-217 -38q-106 0 -191.5 12.5 t-160 39t-143 68.5t-142.5 101z" />
<glyph unicode="T" horiz-adv-x="1329" d="M61 1354v282h1227v-282h-452v-1354h-322v1354h-453z" />
<glyph unicode="U" horiz-adv-x="1701" d="M143 739v899h318v-901q0 -94 26.5 -177t77.5 -144.5t128 -97t175 -35.5q104 0 181 33.5t127.5 94t76 142.5t25.5 180v905h321v-888q0 -164 -49 -305.5t-142 -247t-227 -166t-307 -60.5q-168 0 -303 59.5t-230 163t-146.5 244t-51.5 301.5z" />
<glyph unicode="V" horiz-adv-x="1587" d="M31 1638h352l426 -1151l420 1151h348l-621 -1638h-290z" />
<glyph unicode="W" horiz-adv-x="2267" d="M31 1638h336l346 -1058l299 1058h262l299 -1060l350 1060h334l-533 -1638h-278l-301 1012l-303 -1012h-279z" />
<glyph unicode="X" horiz-adv-x="1617" d="M20 0l598 850l-548 788h385l364 -555l363 555h391l-553 -786l598 -852h-391l-408 623l-407 -623h-392z" />
<glyph unicode="Y" horiz-adv-x="1662" d="M31 1636h368l426 -688l445 688h383l-668 -966v-672h-321v676z" />
<glyph unicode="Z" horiz-adv-x="1482" d="M82 0l811 1356l-780 -2v284h1308l-792 -1325h786v-313h-1333z" />
<glyph unicode="[" horiz-adv-x="774" d="M123 -522v2285h620v-247h-335v-1792h335v-246h-620z" />
<glyph unicode="\" horiz-adv-x="643" d="M-41 1784h252l473 -1901h-252z" />
<glyph unicode="]" horiz-adv-x="772" d="M31 -276h334v1794h-334v245h618v-2285h-618v246z" />
<glyph unicode="^" horiz-adv-x="2387" d="M41 655q31 10 85 23.5t91 19.5q-6 -16 -16.5 -43.5t-21.5 -56.5t-18 -51.5t-7 -26.5q0 -10 4 -6q27 6 62.5 38t53.5 56l52 -258q-23 18 -47.5 28.5t-57.5 20.5q-10 2 -16 3t-10 1q12 -43 31.5 -82.5t49 -70.5t68.5 -49.5t88 -18.5q37 0 73 12.5t65.5 35t47 56t17.5 74.5 q0 39 -25.5 76t-68.5 37q-53 0 -76 -30.5t-23 -80.5q0 -23 7 -47q-51 8 -73 53.5t-22 90.5q0 72 44 123t120 51q29 0 46.5 -8.5t39.5 -24.5q-23 35 -30 63.5t-7 69.5q0 43 17.5 82t40.5 72q53 -37 80.5 -84t27.5 -113q0 -23 -5 -43t-11 -43q25 25 56.5 46.5t68.5 21.5 q51 0 87 -43t36 -92q0 -82 -78 -129q2 2 2 12q0 37 -24.5 64.5t-65.5 27.5t-62.5 -29.5t-21.5 -68.5q0 -37 19.5 -66t49 -49t65.5 -30.5t66 -10.5q41 0 83 10.5t76 33t54.5 58t20.5 86.5q0 10 -1 17.5t-3 17.5q-29 -12 -65 -28.5t-68 -32.5l-8 250q37 -25 65.5 -43.5 t60.5 -34.5q8 -4 7 6q-14 51 -32 92t-38 88h238q-25 -53 -40.5 -101t-25.5 -81q-4 -12 4 -8q29 16 63.5 38.5t63.5 45.5l-6 -252q-33 18 -61.5 31.5t-63.5 29.5v-37q0 -92 50 -141t138 -49q37 0 72 10t63.5 29.5t46 49.5t17.5 71q0 35 -21.5 60.5t-58.5 25.5q-31 0 -52 -29 t-32 -51q-23 23 -37 51.5t-14 58.5q0 59 29.5 100.5t95.5 41.5q35 0 66.5 -24.5t54.5 -49.5q-6 37 -6 72q0 66 30.5 117t77.5 87q27 -33 42.5 -67.5t15.5 -75.5q0 -45 -13.5 -86t-36.5 -80q23 20 49.5 36.5t59.5 16.5q53 0 94 -39.5t41 -93.5q0 -29 -12 -57.5t-32.5 -53 t-46.5 -44t-52 -27.5q12 14 17 41t5 43q0 72 -71 72q-43 0 -63.5 -41t-20.5 -78q0 -78 43 -110.5t108 -49.5q29 -10 58 -6q100 4 149 60.5t78 173.5q-39 -14 -74 -26.5t-72 -33.5q16 59 36 136t36 132q23 -27 47.5 -53t50.5 -49q10 -10 11 8l-6 68q-4 29 -7.5 56.5 t-7.5 47.5q45 -6 87 -15.5t75 -23.5q-8 -20 -17.5 -47.5t-19.5 -54.5q-4 -16 -10 -31.5t-12 -32.5q8 -35 0.5 -64.5t-17.5 -45.5q-4 -8 -13 -19.5t-26 -19.5l-88 -207q8 -27 17.5 -70t13.5 -69q2 -27 -12 -45l-117 -146q-98 45 -205.5 76t-216 49.5t-216.5 26.5t-208 8 q-96 0 -209.5 -8t-228.5 -27.5t-221.5 -49.5t-190.5 -73q-20 16 -43.5 38t-46.5 40l-53 43q-16 16 -21 31q-2 4 -2 11v12q0 10 2 34.5t5.5 51t5.5 50t2 36.5l-62 196q-8 4 -15 9t-11 12q-29 27 -36 68.5t13 80.5zM106 459q0 -8 3.5 -20.5t9.5 -25t14 -20.5t19 -8 q10 0 13 10.5t3 18.5t-4 21.5t-10.5 25.5t-15.5 21.5t-17 9.5q-10 0 -12.5 -12.5t-2.5 -20.5zM215 799q0 14 9 24.5t24 10.5q14 0 25.5 -10.5t11.5 -24.5t-10.5 -24.5t-24.5 -10.5t-24.5 10t-10.5 25zM225 -27q0 -10 25.5 -31.5t46.5 -37.5q6 18 6 57v41l-67 55 q-4 -23 -7.5 -51.5t-3.5 -32.5zM287 735q4 8 18 21.5t23 19.5q76 59 153.5 107.5t163.5 88.5t183.5 72.5t213.5 61.5q10 -25 21.5 -61.5t22 -75.5t18.5 -77t12 -69q4 -10 -16 -10q-16 0 -21 4q-10 51 -28.5 117.5t-42.5 118.5q-86 -18 -175.5 -50t-175.5 -73t-164.5 -89 t-142.5 -100q-10 -8 -22.5 -19t-20.5 -15q-4 -2 -13 11t-7 17zM289 879q0 16 11 28.5t28 12.5q16 0 29.5 -12.5t13.5 -28.5t-12.5 -28.5t-28.5 -12.5t-28.5 12t-12.5 29zM387 952q0 16 12.5 28.5t28.5 12.5t29.5 -12.5t13.5 -28.5q0 -18 -12.5 -30.5t-28.5 -12.5t-29.5 12.5 t-13.5 30.5zM391 74q0 -16 12.5 -27.5t28.5 -11.5q39 0 39 39q0 16 -12.5 28.5t-28.5 12.5t-27.5 -12.5t-11.5 -28.5zM403 -231q0 10 21 18q86 35 184.5 58.5t200.5 39t202.5 22.5t190.5 7q82 0 179.5 -6t196.5 -20.5t196.5 -38t177.5 -56.5q30 -10 30 -24q0 -16 -26 -25 q-176 -68 -345 -89.5t-366 -21.5q-219 0 -416.5 24t-402.5 93q-23 6 -23 19zM428 -35q0 -16 13.5 -28.5t29.5 -12.5t28.5 12.5t12.5 28.5t-13.5 28.5t-29.5 12.5t-28.5 -12t-12.5 -29zM494 1024q0 18 13 32.5t34 14.5q18 0 33.5 -14.5t15.5 -32.5q0 -20 -13.5 -34.5 t-33.5 -14.5t-34.5 14.5t-14.5 34.5zM596 76q6 -41 47 -62.5t94 -13.5q53 10 87 43t26 74q-6 39 -47 61.5t-94 11.5q-53 -8 -86 -41.5t-27 -72.5zM608 1085q0 23 15.5 38.5t38.5 15.5t38 -15.5t15 -38.5t-14.5 -38t-36.5 -15q-23 0 -39.5 15.5t-16.5 37.5zM752 1143 q0 23 15 39t38 16t40 -16t17 -39t-16.5 -39.5t-38.5 -16.5q-23 0 -39 16.5t-16 39.5zM899 1184q0 23 16.5 40t40.5 17q23 0 40.5 -17t17.5 -40t-16.5 -40.5t-39.5 -17.5t-41 17.5t-18 40.5zM942 166q0 -16 12.5 -28.5t28.5 -12.5t27.5 12.5t11.5 28.5t-12.5 27.5t-28.5 11.5 q-39 0 -39 -39zM952 49q0 -18 13.5 -30.5t29.5 -12.5t28.5 12.5t12.5 30.5q0 16 -13 28.5t-30 12.5q-16 0 -28.5 -12t-12.5 -29zM1055 1534l100 -27l-43 133h156l-39 -133l98 27l-2 -127l-111 39v-74q43 -4 74 -41t31 -82q0 -51 -37 -87t-88 -36q-55 0 -93 36t-38 89 q0 45 30.5 80t75.5 41v74l-108 -39zM1102 1266q26 -15 69 -15l-2 84q-53 -16 -67 -69zM1116 1202q12 -20 37 -29.5t41 -9.5t39 11.5t33 27.5q-29 18 -74 19q-18 0 -38.5 -4.5t-37.5 -14.5zM1126 141l27 -47q10 -18 20.5 -32.5t16.5 -14.5t16.5 14.5t20.5 32.5l26 47l-28 45 q-10 16 -21.5 31.5t-15.5 15.5q-6 0 -16.5 -15t-20.5 -32zM1139 1051q0 23 15 38t38 15q20 0 35.5 -16.5t15.5 -36.5q0 -23 -15.5 -38.5t-37.5 -15.5q-20 0 -35.5 15.5t-15.5 38.5zM1145 934q0 18 14.5 30.5t30.5 12.5t30.5 -12.5t14.5 -30.5t-13.5 -30.5t-29.5 -12.5 t-31.5 12t-15.5 31zM1153 836q0 14 11.5 24t25.5 10t26.5 -10t12.5 -24q0 -16 -11.5 -26.5t-25.5 -10.5t-26.5 10t-12.5 27zM1157 539q0 -14 10.5 -24.5t24.5 -10.5t24.5 10.5t10.5 24.5t-10.5 24t-26.5 10q-14 0 -23.5 -10t-9.5 -24zM1213 1319q1 -12 1 -29v-39 q33 -3 64 17q-4 25 -21.5 41t-42.5 26q-2 -4 -1 -16zM1262 823q4 31 12 69t19.5 77t22.5 75.5t21 63.5q121 -31 219.5 -65.5t185.5 -77.5t167 -94.5t164 -114.5l36 -33q-2 -4 -4 -7t-4 -7q-10 -16 -12 -13l-35 25q-154 123 -326 205t-358 129q-25 -51 -44 -119t-26 -113 q-4 -10 -18 -10q-16 0 -19 1t-1 9zM1335 51q0 -18 12.5 -30.5t28.5 -12.5q18 0 30.5 12.5t12.5 30.5q0 16 -13 28.5t-30 12.5q-18 0 -29.5 -12t-11.5 -29zM1352 166q0 -16 12 -28.5t29 -12.5q16 0 27.5 12.5t11.5 28.5t-12.5 27.5t-28.5 11.5q-39 0 -39 -39zM1360 1178 q0 23 16.5 40t40.5 17q23 0 40.5 -17t17.5 -40t-16.5 -40.5t-39.5 -17.5t-41 17.5t-18 40.5zM1513 115q-6 -39 27 -72t86 -43t95 12.5t48 61.5q6 41 -26.5 73.5t-85.5 42.5q-53 8 -95 -13t-49 -62zM1518 1135q0 23 15 39t38 16t40 -16t17 -39t-16.5 -39.5t-38.5 -16.5 q-23 0 -39 16.5t-16 39.5zM1663 1077q0 23 15.5 38t37.5 15q23 0 38 -15t15 -38t-14 -38t-37 -15t-39 15.5t-16 37.5zM1792 1016q0 18 13.5 32.5t33.5 14.5q18 0 33.5 -14.5t15.5 -32.5q0 -20 -13 -34.5t-34 -14.5q-20 0 -34.5 14t-14.5 35zM1841 -31q0 -16 13.5 -28.5 t29.5 -12.5t28.5 12.5t12.5 28.5t-13.5 28.5t-29.5 12.5t-28.5 -12t-12.5 -29zM1878 80q0 -16 12.5 -28.5t28.5 -12.5t27.5 12.5t11.5 28.5t-12.5 27.5t-28.5 11.5q-39 0 -39 -39zM1911 944q0 16 12 28.5t29 12.5q16 0 29.5 -12.5t13.5 -28.5q0 -18 -12.5 -30.5t-28.5 -12.5 t-29.5 12.5t-13.5 30.5zM2015 870q0 16 12.5 28.5t28.5 12.5t28.5 -12.5t12.5 -28.5t-12 -28.5t-29 -12.5q-16 0 -28.5 12.5t-12.5 28.5zM2050 2l39 -84q12 18 29.5 39t17.5 31t-7 35.5t-15 42.5zM2105 791q0 14 9.5 24t23.5 10t25.5 -10t11.5 -24t-10.5 -24.5t-24.5 -10.5 t-24.5 10t-10.5 25zM2198 406q0 -8 3 -17.5t13 -9.5t18.5 9t14.5 21.5t9 26t3 21.5t-3 17t-13 9t-18.5 -9t-14.5 -21.5t-9 -25.5t-3 -21z" />
<glyph unicode="_" horiz-adv-x="1136" d="M-51 -135h1239v-199h-1239v199z" />
<glyph unicode="`" horiz-adv-x="1187" d="M244 1726h329l183 -395h-217z" />
<glyph unicode="a" horiz-adv-x="1187" d="M61 328q0 100 44.5 175t120 125t177 74.5t218.5 24.5h170q0 104 -67 165.5t-196 61.5q-61 0 -126.5 -22.5t-131.5 -81.5l-174 176q94 92 218 140t255 48q123 0 219.5 -38.5t155.5 -100.5q78 -78 109.5 -175t31.5 -245v-655h-297v63q-78 -53 -164.5 -73.5t-179.5 -20.5 q-86 0 -155.5 25.5t-120.5 74t-79 114t-28 145.5zM356 354q0 -61 48.5 -100t123.5 -39q66 0 130 20.5t130 59.5v219h-135q-61 0 -115.5 -8t-94.5 -27.5t-63.5 -50.5t-23.5 -74z" />
<glyph unicode="b" horiz-adv-x="1323" d="M123 0v1700h299v-574q51 41 121.5 66t148.5 25q109 0 211.5 -48.5t182 -132.5t128 -198.5t48.5 -245.5q0 -125 -42 -237.5t-118 -197.5t-180.5 -135.5t-229.5 -50.5q-78 0 -145.5 21.5t-126.5 68.5v-61h-297zM420 317q94 -88 217 -88q70 0 130 27t103 75t68 114.5 t25 146.5q0 82 -25 149.5t-69 115.5t-104 73.5t-134 25.5q-47 0 -108.5 -19t-102.5 -50v-570z" />
<glyph unicode="c" horiz-adv-x="1212" d="M82 592q0 131 49 244.5t133 197.5t199 132t246 48q135 0 255.5 -49t213.5 -149l-199 -203q-45 59 -109.5 98t-156.5 39q-68 0 -128.5 -28.5t-106.5 -76.5t-72.5 -113.5t-26.5 -139.5t26.5 -139.5t71.5 -113.5t106.5 -77t129.5 -29q88 0 159.5 42t114.5 108l205 -205 q-92 -104 -217 -156.5t-266 -52.5q-129 0 -244 47t-200 130t-134 198t-49 248z" />
<glyph unicode="d" horiz-adv-x="1343" d="M82 592q0 131 48 245.5t128 198.5t182.5 132.5t210.5 48.5q76 0 147.5 -20.5t123.5 -57.5v561h299v-1700h-301v61q-57 -47 -125 -68.5t-144 -21.5q-125 0 -229.5 50.5t-180 135.5t-117.5 197.5t-42 237.5zM379 592q0 -80 24.5 -146.5t67.5 -114.5t103.5 -75t132.5 -27 q117 0 217 88v570q-41 29 -102.5 49t-108.5 20q-74 0 -134.5 -25.5t-105.5 -73.5t-69.5 -115.5t-24.5 -149.5z" />
<glyph unicode="e" d="M82 592q0 129 49 242.5t135 197.5t201 133t246 49q125 0 239.5 -46t202.5 -128t139.5 -195.5t51.5 -250.5q0 -29 -3.5 -59.5t-7.5 -63.5h-946q35 -104 120 -177t216 -73q80 0 160 27.5t133 75.5l186 -187q-123 -92 -240.5 -130t-248.5 -38q-133 0 -249 49.5t-201 133.5 t-134 197.5t-49 242.5zM389 709h647q-35 113 -124 181t-201 68q-111 0 -199 -68.5t-123 -180.5z" />
<glyph unicode="f" horiz-adv-x="751" d="M41 924v258h143v90q0 223 83 340t292 117q104 0 223 -29v-270q-43 16 -75.5 21t-71.5 5q-86 0 -122 -38t-36 -142v-94h187v-258h-187v-924h-293v924h-143z" />
<glyph unicode="g" horiz-adv-x="1230" d="M72 -203q0 123 70.5 206t230.5 124q-49 18 -71 49q-19 28 -19 59v5q2 34 27.5 64t72.5 46q-53 25 -101.5 64t-87 90t-61 114.5t-22.5 135.5q0 96 41 180t110.5 146.5t161.5 98t194 35.5q100 0 187 -30h405v-234h-125q47 -104 48 -196q0 -80 -30 -155t-85 -136.5 t-134 -104.5t-177 -57q-68 -10 -102 -30.5t-34 -43t34 -41t102 -24.5q229 -20 355 -114.5t126 -250.5q0 -80 -39 -147.5t-111.5 -116.5t-175 -75.5t-229.5 -26.5q-129 0 -232.5 26.5t-177 74.5t-112.5 115.5t-39 149.5zM369 -203q0 -70 73.5 -104.5t190.5 -34.5 q119 0 189.5 33.5t70.5 105.5t-71.5 104.5t-188.5 32.5q-123 0 -193.5 -34.5t-70.5 -102.5zM403 754q0 -45 17.5 -85t47.5 -70t68.5 -47t84.5 -17q45 0 84.5 17t69.5 47t47.5 70t17.5 85t-17.5 84t-47.5 68.5t-69.5 47t-84.5 17.5t-84 -17.5t-69 -47t-47.5 -68.5t-17.5 -84z " />
<glyph unicode="h" horiz-adv-x="1296" d="M123 0v1698h297v-582q66 51 151.5 76t165.5 25q92 0 174 -30t145.5 -90.5t100.5 -151.5t37 -216v-729h-295v709q0 63 -19.5 111t-51 80t-73.5 47.5t-87 15.5q-68 0 -129.5 -20.5t-118.5 -57.5v-885h-297z" />
<glyph unicode="i" horiz-adv-x="573" d="M123 1391v307h307v-307h-307zM127 0v1186h299v-1186h-299z" />
<glyph unicode="j" horiz-adv-x="598" d="M-102 -229q45 -14 91 -17h11q39 0 70 16q36 17 59 58t23 115v1243h299v-1247q0 -117 -32 -208t-90.5 -149.5t-143.5 -81.5q-48 -14 -102 -14q-42 0 -87 8zM147 1391v307h308v-307h-308z" />
<glyph unicode="k" horiz-adv-x="1228" d="M123 0v1698h301v-1016l414 502h344l-486 -576l553 -608h-350l-475 530v-530h-301z" />
<glyph unicode="l" horiz-adv-x="643" d="M123 295v1405h301v-1354q0 -74 29.5 -101.5t70.5 -27.5q51 0 99 31v-242q-35 -16 -79 -26.5t-91 -10.5q-66 0 -126.5 17.5t-105.5 56.5t-71.5 100.5t-26.5 151.5z" />
<glyph unicode="m" horiz-adv-x="1976" d="M123 0v1184h295v-88q55 53 130 85.5t152 32.5q86 0 173.5 -38.5t152.5 -112.5q92 82 186.5 116.5t206.5 34.5q92 0 175 -27.5t144.5 -88t98.5 -153.5t37 -224v-721h-293v707q0 125 -60.5 189.5t-148.5 64.5q-68 0 -128 -21.5t-118 -71.5q18 -72 19 -161v-707h-295v707 q0 125 -60.5 189.5t-146.5 64.5q-68 0 -119 -24t-106 -75v-862h-295z" />
<glyph unicode="n" horiz-adv-x="1302" d="M123 0v1184h297v-88q27 27 65.5 49t80.5 37.5t86 23.5t85 8q88 0 172 -28.5t148.5 -88t103.5 -153.5t39 -223v-721h-295v707q0 63 -19.5 111t-52 80t-74.5 47.5t-87 15.5q-68 0 -133.5 -24t-118.5 -75v-862h-297z" />
<glyph unicode="o" d="M82 592q0 129 50 242.5t136 198.5t201 133t244 48q131 0 246.5 -48t201.5 -131t135.5 -197.5t49.5 -245.5q0 -133 -49.5 -247t-135.5 -196.5t-201.5 -131t-246.5 -48.5t-246 48.5t-201 132t-135 197.5t-49 245zM375 592q0 -76 26.5 -141.5t72.5 -114.5t107.5 -77 t131.5 -28t131 28t107 77t73 114.5t27 141.5t-27 141.5t-73 114.5t-107.5 76.5t-130.5 27.5q-70 0 -131.5 -27.5t-107.5 -76.5t-72.5 -114.5t-26.5 -141.5z" />
<glyph unicode="p" horiz-adv-x="1323" d="M123 -514v1700h299v-62q51 41 121.5 65.5t148.5 24.5q109 0 211.5 -48t182 -132t128 -198.5t48.5 -245.5q0 -125 -42 -237.5t-118 -197.5t-180.5 -135.5t-229.5 -50.5q-78 0 -145.5 21.5t-126.5 68.5l2 -573h-299zM420 315q94 -88 215 -88q70 0 130 27t103 75t68 114.5 t25 144.5q0 84 -25 151.5t-69 115.5t-104.5 73.5t-133.5 25.5q-47 0 -107.5 -19.5t-101.5 -51.5v-568z" />
<glyph unicode="q" horiz-adv-x="1341" d="M82 590q0 131 48 245.5t128 198.5t182.5 132t210.5 48q76 0 147.5 -20t123.5 -57v49h297v-1700h-297v573q-57 -47 -126 -68.5t-145 -21.5q-125 0 -229.5 50.5t-180 135.5t-117.5 197.5t-42 237.5zM379 588q0 -78 24.5 -144.5t67.5 -114.5t103.5 -75t132.5 -27 q117 0 217 88v568q-41 33 -102.5 52t-108.5 19q-74 0 -134.5 -25.5t-105.5 -73.5t-69.5 -115.5t-24.5 -151.5z" />
<glyph unicode="r" horiz-adv-x="954" d="M123 0v1184h297v-127q53 76 117.5 116.5t144.5 40.5q78 0 152.5 -41.5t140.5 -111.5l-158 -250q-43 47 -95 83t-106 36q-29 0 -62.5 -13.5t-63 -44t-50 -81t-20.5 -123.5v-668h-297z" />
<glyph unicode="s" horiz-adv-x="1050" d="M82 850q0 86 40 154.5t104.5 114.5t146.5 70.5t166 24.5q270 0 442 -204l-176 -179q-51 63 -116.5 100.5t-143.5 37.5q-27 0 -56.5 -7.5t-55 -20.5t-42 -34.5t-16.5 -48.5q0 -47 62.5 -82t178.5 -69q76 -23 143.5 -57t119 -81t81 -106t29.5 -131q0 -90 -41 -158 t-106.5 -114t-147.5 -69.5t-162 -23.5q-135 0 -248.5 50.5t-199.5 160.5l178 180q53 -68 123 -105.5t150 -37.5q70 0 115.5 25.5t45.5 76.5q0 53 -65.5 89t-184.5 71q-70 20 -135 52t-116.5 78t-82 105.5t-30.5 137.5z" />
<glyph unicode="t" horiz-adv-x="833" d="M31 920v112q143 72 241.5 199t122.5 301h86v-346h299v-266h-299v-539q0 -90 39 -119t94 -29q35 0 84.5 12.5t83.5 41.5v-260q-45 -29 -104.5 -43.5t-118.5 -14.5q-104 0 -176 25.5t-115 79t-62.5 135.5t-19.5 192v519h-155z" />
<glyph unicode="u" horiz-adv-x="1294" d="M102 465v719h295v-705q0 -66 19.5 -113t51.5 -78.5t74 -47t87 -15.5q143 0 248 99v860h294v-1184h-294v90q-29 -29 -67 -50.5t-80 -36.5t-86 -23.5t-83 -8.5q-90 0 -173 29t-146.5 88t-101.5 153.5t-38 223.5z" />
<glyph unicode="v" horiz-adv-x="1222" d="M31 1184h323l269 -795l268 795h321l-444 -1186h-291z" />
<glyph unicode="w" horiz-adv-x="1820" d="M31 1186h311l223 -742l223 742h263l225 -742l223 742h311l-397 -1188h-256l-235 707l-236 -707h-256z" />
<glyph unicode="x" horiz-adv-x="1210" d="M31 -2l422 620l-387 568h333l217 -332l215 332h336l-389 -568l422 -620h-338l-246 379l-247 -379h-338z" />
<glyph unicode="y" horiz-adv-x="1208" d="M31 1186h321l273 -762l256 762h317l-532 -1407q-59 -160 -154.5 -228.5t-230.5 -68.5q-20 0 -45 3t-48 9l-98 275q82 -35 141 -35q70 0 127.5 31.5t87.5 117.5l41 119z" />
<glyph unicode="z" horiz-adv-x="1140" d="M41 0l575 922h-520v264h1014l-588 -922h565v-264h-1046z" />
<glyph unicode="{" horiz-adv-x="827" d="M61 477v232q94 0 141.5 45t66 117.5t19.5 165.5t3 191.5t13 191.5t51 166t119 118t216 45h107v-272h-80q-92 0 -120 -88.5t-28 -253.5q0 -74 -2 -154t-18.5 -154.5t-54 -136t-109.5 -96.5q70 -31 108.5 -85t55 -123t19.5 -147.5t3 -158.5q0 -186 30 -278.5t116 -92.5h80 v-274h-123q-133 0 -209 45t-113 117.5t-47 167t-10 191.5v191.5t-20.5 167t-68.5 117.5t-145 45z" />
<glyph unicode="|" horiz-adv-x="546" d="M168 -399v2183h252v-2183h-252z" />
<glyph unicode="}" horiz-adv-x="827" d="M31 -291h80q86 0 115.5 92.5t29.5 278.5q0 80 2 158.5t19.5 147.5t55.5 123t109 85q-72 35 -109.5 96.5t-54 136t-18.5 154.5t-2 154q0 166 -27.5 254t-119.5 88h-80v272h106q137 0 216 -45t119 -118t51.5 -166t13.5 -191.5t3 -191.5t19.5 -165.5t65.5 -117.5t141 -45 v-232q-96 0 -144.5 -45t-69 -117.5t-20.5 -167v-191.5t-10 -191.5t-47 -167t-112.5 -117.5t-208.5 -45h-123v274z" />
<glyph unicode="~" horiz-adv-x="1333" d="M51 543v319q147 152 355 152q78 0 149.5 -23.5t139 -51.5t131 -50.5t124.5 -22.5q51 0 96.5 15.5t85 39t76.5 54.5t74 61v-336q-78 -66 -160 -104.5t-192 -38.5q-86 0 -158 23.5t-136.5 52.5t-125.5 52.5t-125 23.5q-53 0 -97 -14.5t-84 -37t-77 -52.5t-76 -62z" />
<glyph horiz-adv-x="657" />
<glyph unicode="&#xa1;" horiz-adv-x="559" d="M82 0l86 1184h182l86 -1184h-354zM106 1333v305h306v-305h-306z" />
<glyph unicode="&#xa2;" horiz-adv-x="1222" d="M82 592q0 117 40 220t109.5 185t163.5 136.5t205 72.5v133h186v-131q111 -16 202 -65t161 -125l-193 -193q-33 43 -79 75t-101 46v-708q125 33 191 135l194 -195q-72 -82 -168 -134t-207 -69v-190h-186v192q-111 18 -205 72.5t-163.5 136.5t-109.5 185.5t-40 220.5z M360 592q0 -63 18.5 -120.5t52.5 -103.5t80 -80t99 -48v704q-53 -16 -98 -50t-79 -80t-53.5 -103.5t-19.5 -118.5z" />
<glyph unicode="&#xa3;" horiz-adv-x="1302" d="M102 -33q78 139 126 290t71 341h-164l2 279h191q0 6 2 25.5t5 41t6 41t3 27.5q8 86 16.5 144t16.5 98t17 69t20 57q23 70 62.5 123t90.5 90t111.5 56.5t126.5 19.5q246 0 387 -184l-203 -199q-59 98 -162 98q-53 0 -92 -27.5t-59 -68.5q-16 -35 -26.5 -97.5t-18.5 -121.5 l-23 -192h348l2 -279h-378q-4 -31 -10.5 -71t-15.5 -80.5t-18.5 -78.5t-19.5 -65q16 2 37.5 4t38.5 2q37 0 82 -5t80 -11q55 -10 91 -17.5t97 -7.5q41 0 73 3t60.5 10.5t58 18.5t66.5 28v-318q-63 -16 -126.5 -24.5t-155.5 -8.5q-72 0 -154 13.5t-148 25.5q-20 4 -48.5 7.5 t-58.5 5.5t-56.5 3t-40.5 1q-35 0 -76 -5t-83 -14.5t-81 -20.5t-70 -26z" />
<glyph unicode="&#xa4;" horiz-adv-x="1652" d="M61 528l121 207h62q-2 20 -3 40t-1 38v36.5t2 37.5h-181l121 207h103q43 127 122.5 233.5t189.5 182t244 117.5t287 42q123 0 232.5 -30.5t208.5 -84.5l-152 -264q-63 37 -136 57.5t-153 20.5q-166 0 -296 -72.5t-201 -201.5h686l-121 -207h-633q-2 -16 -2 -32.5v-35.5 q0 -45 6 -84l551 -2l-119 -207h-356q72 -117 198 -185.5t287 -68.5q76 0 154 18.5t137 57.5l152 -266q-94 -53 -206 -83t-237 -30q-147 0 -279 42t-240.5 117t-190.5 177.5t-127 222.5h-230z" />
<glyph unicode="&#xa5;" horiz-adv-x="1593" d="M31 1630h381l391 -631l397 631h373l-356 -553h172v-272h-349l-79 -123v-61h428v-273h-428v-354h-316v354h-432v273h432v59l-82 125h-350v272h174z" />
<glyph unicode="&#xa6;" horiz-adv-x="587" d="M168 -399v944h252v-944h-252zM168 842v942h252v-942h-252z" />
<glyph unicode="&#xa7;" horiz-adv-x="2387" d="M41 655q31 10 85 23.5t91 19.5q-6 -16 -16.5 -43.5t-21.5 -56.5t-18 -51.5t-7 -26.5q0 -10 4 -6q27 6 62.5 38t53.5 56l52 -258q-23 18 -47.5 28.5t-57.5 20.5q-10 2 -16 3t-10 1q12 -43 31.5 -82.5t49 -70.5t68.5 -49.5t88 -18.5q37 0 73 12.5t65.5 35t47 56t17.5 74.5 q0 39 -25.5 76t-68.5 37q-53 0 -76 -30.5t-23 -80.5q0 -23 7 -47q-51 8 -73 53.5t-22 90.5q0 72 44 123t120 51q29 0 46.5 -8.5t39.5 -24.5q-23 35 -30 63.5t-7 69.5q0 43 17.5 82t40.5 72q53 -37 80.5 -84t27.5 -113q0 -23 -5 -43t-11 -43q25 25 56.5 46.5t68.5 21.5 q51 0 87 -43t36 -92q0 -82 -78 -129q2 2 2 12q0 37 -24.5 64.5t-65.5 27.5t-62.5 -29.5t-21.5 -68.5q0 -37 19.5 -66t49 -49t65.5 -30.5t66 -10.5q41 0 83 10.5t76 33t54.5 58t20.5 86.5q0 10 -1 17.5t-3 17.5q-29 -12 -65 -28.5t-68 -32.5l-8 250q37 -25 65.5 -43.5 t60.5 -34.5q8 -4 7 6q-14 51 -32 92t-38 88h238q-25 -53 -40.5 -101t-25.5 -81q-4 -12 4 -8q29 16 63.5 38.5t63.5 45.5l-6 -252q-33 18 -61.5 31.5t-63.5 29.5v-37q0 -92 50 -141t138 -49q37 0 72 10t63.5 29.5t46 49.5t17.5 71q0 35 -21.5 60.5t-58.5 25.5q-31 0 -52 -29 t-32 -51q-23 23 -37 51.5t-14 58.5q0 59 29.5 100.5t95.5 41.5q35 0 66.5 -24.5t54.5 -49.5q-6 37 -6 72q0 66 30.5 117t77.5 87q27 -33 42.5 -67.5t15.5 -75.5q0 -45 -13.5 -86t-36.5 -80q23 20 49.5 36.5t59.5 16.5q53 0 94 -39.5t41 -93.5q0 -29 -12 -57.5t-32.5 -53 t-46.5 -44t-52 -27.5q12 14 17 41t5 43q0 72 -71 72q-43 0 -63.5 -41t-20.5 -78q0 -78 43 -110.5t108 -49.5q29 -10 58 -6q100 4 149 60.5t78 173.5q-39 -14 -74 -26.5t-72 -33.5q16 59 36 136t36 132q23 -27 47.5 -53t50.5 -49q10 -10 11 8l-6 68q-4 29 -7.5 56.5 t-7.5 47.5q45 -6 87 -15.5t75 -23.5q-8 -20 -17.5 -47.5t-19.5 -54.5q-4 -16 -10 -31.5t-12 -32.5q8 -35 0.5 -64.5t-17.5 -45.5q-4 -8 -13 -19.5t-26 -19.5l-88 -207q8 -27 17.5 -70t13.5 -69q2 -27 -12 -45l-117 -146q-98 45 -205.5 76t-216 49.5t-216.5 26.5t-208 8 q-96 0 -209.5 -8t-228.5 -27.5t-221.5 -49.5t-190.5 -73q-20 16 -43.5 38t-46.5 40l-53 43q-16 16 -21 31q-2 4 -2 11v12q0 10 2 34.5t5.5 51t5.5 50t2 36.5l-62 196q-8 4 -15 9t-11 12q-29 27 -36 68.5t13 80.5zM106 459q0 -8 3.5 -20.5t9.5 -25t14 -20.5t19 -8 q10 0 13 10.5t3 18.5t-4 21.5t-10.5 25.5t-15.5 21.5t-17 9.5q-10 0 -12.5 -12.5t-2.5 -20.5zM215 799q0 14 9 24.5t24 10.5q14 0 25.5 -10.5t11.5 -24.5t-10.5 -24.5t-24.5 -10.5t-24.5 10t-10.5 25zM225 -27q0 -10 25.5 -31.5t46.5 -37.5q6 18 6 57v41l-67 55 q-4 -23 -7.5 -51.5t-3.5 -32.5zM287 735q4 8 18 21.5t23 19.5q76 59 153.5 107.5t163.5 88.5t183.5 72.5t213.5 61.5q10 -25 21.5 -61.5t22 -75.5t18.5 -77t12 -69q4 -10 -16 -10q-16 0 -21 4q-10 51 -28.5 117.5t-42.5 118.5q-86 -18 -175.5 -50t-175.5 -73t-164.5 -89 t-142.5 -100q-10 -8 -22.5 -19t-20.5 -15q-4 -2 -13 11t-7 17zM289 879q0 16 11 28.5t28 12.5q16 0 29.5 -12.5t13.5 -28.5t-12.5 -28.5t-28.5 -12.5t-28.5 12t-12.5 29zM387 952q0 16 12.5 28.5t28.5 12.5t29.5 -12.5t13.5 -28.5q0 -18 -12.5 -30.5t-28.5 -12.5t-29.5 12.5 t-13.5 30.5zM391 74q0 -16 12.5 -27.5t28.5 -11.5q39 0 39 39q0 16 -12.5 28.5t-28.5 12.5t-27.5 -12.5t-11.5 -28.5zM403 -231q0 10 21 18q86 35 184.5 58.5t200.5 39t202.5 22.5t190.5 7q82 0 179.5 -6t196.5 -20.5t196.5 -38t177.5 -56.5q30 -10 30 -24q0 -16 -26 -25 q-176 -68 -345 -89.5t-366 -21.5q-219 0 -416.5 24t-402.5 93q-23 6 -23 19zM428 -35q0 -16 13.5 -28.5t29.5 -12.5t28.5 12.5t12.5 28.5t-13.5 28.5t-29.5 12.5t-28.5 -12t-12.5 -29zM494 1024q0 18 13 32.5t34 14.5q18 0 33.5 -14.5t15.5 -32.5q0 -20 -13.5 -34.5 t-33.5 -14.5t-34.5 14.5t-14.5 34.5zM596 76q6 -41 47 -62.5t94 -13.5q53 10 87 43t26 74q-6 39 -47 61.5t-94 11.5q-53 -8 -86 -41.5t-27 -72.5zM608 1085q0 23 15.5 38.5t38.5 15.5t38 -15.5t15 -38.5t-14.5 -38t-36.5 -15q-23 0 -39.5 15.5t-16.5 37.5zM752 1143 q0 23 15 39t38 16t40 -16t17 -39t-16.5 -39.5t-38.5 -16.5q-23 0 -39 16.5t-16 39.5zM899 1184q0 23 16.5 40t40.5 17q23 0 40.5 -17t17.5 -40t-16.5 -40.5t-39.5 -17.5t-41 17.5t-18 40.5zM942 166q0 -16 12.5 -28.5t28.5 -12.5t27.5 12.5t11.5 28.5t-12.5 27.5t-28.5 11.5 q-39 0 -39 -39zM952 49q0 -18 13.5 -30.5t29.5 -12.5t28.5 12.5t12.5 30.5q0 16 -13 28.5t-30 12.5q-16 0 -28.5 -12t-12.5 -29zM1055 1534l100 -27l-43 133h156l-39 -133l98 27l-2 -127l-111 39v-74q43 -4 74 -41t31 -82q0 -51 -37 -87t-88 -36q-55 0 -93 36t-38 89 q0 45 30.5 80t75.5 41v74l-108 -39zM1102 1266q26 -15 69 -15l-2 84q-53 -16 -67 -69zM1116 1202q12 -20 37 -29.5t41 -9.5t39 11.5t33 27.5q-29 18 -74 19q-18 0 -38.5 -4.5t-37.5 -14.5zM1126 141l27 -47q10 -18 20.5 -32.5t16.5 -14.5t16.5 14.5t20.5 32.5l26 47l-28 45 q-10 16 -21.5 31.5t-15.5 15.5q-6 0 -16.5 -15t-20.5 -32zM1139 1051q0 23 15 38t38 15q20 0 35.5 -16.5t15.5 -36.5q0 -23 -15.5 -38.5t-37.5 -15.5q-20 0 -35.5 15.5t-15.5 38.5zM1145 934q0 18 14.5 30.5t30.5 12.5t30.5 -12.5t14.5 -30.5t-13.5 -30.5t-29.5 -12.5 t-31.5 12t-15.5 31zM1153 836q0 14 11.5 24t25.5 10t26.5 -10t12.5 -24q0 -16 -11.5 -26.5t-25.5 -10.5t-26.5 10t-12.5 27zM1157 539q0 -14 10.5 -24.5t24.5 -10.5t24.5 10.5t10.5 24.5t-10.5 24t-26.5 10q-14 0 -23.5 -10t-9.5 -24zM1213 1319q1 -12 1 -29v-39 q33 -3 64 17q-4 25 -21.5 41t-42.5 26q-2 -4 -1 -16zM1262 823q4 31 12 69t19.5 77t22.5 75.5t21 63.5q121 -31 219.5 -65.5t185.5 -77.5t167 -94.5t164 -114.5l36 -33q-2 -4 -4 -7t-4 -7q-10 -16 -12 -13l-35 25q-154 123 -326 205t-358 129q-25 -51 -44 -119t-26 -113 q-4 -10 -18 -10q-16 0 -19 1t-1 9zM1335 51q0 -18 12.5 -30.5t28.5 -12.5q18 0 30.5 12.5t12.5 30.5q0 16 -13 28.5t-30 12.5q-18 0 -29.5 -12t-11.5 -29zM1352 166q0 -16 12 -28.5t29 -12.5q16 0 27.5 12.5t11.5 28.5t-12.5 27.5t-28.5 11.5q-39 0 -39 -39zM1360 1178 q0 23 16.5 40t40.5 17q23 0 40.5 -17t17.5 -40t-16.5 -40.5t-39.5 -17.5t-41 17.5t-18 40.5zM1513 115q-6 -39 27 -72t86 -43t95 12.5t48 61.5q6 41 -26.5 73.5t-85.5 42.5q-53 8 -95 -13t-49 -62zM1518 1135q0 23 15 39t38 16t40 -16t17 -39t-16.5 -39.5t-38.5 -16.5 q-23 0 -39 16.5t-16 39.5zM1663 1077q0 23 15.5 38t37.5 15q23 0 38 -15t15 -38t-14 -38t-37 -15t-39 15.5t-16 37.5zM1792 1016q0 18 13.5 32.5t33.5 14.5q18 0 33.5 -14.5t15.5 -32.5q0 -20 -13 -34.5t-34 -14.5q-20 0 -34.5 14t-14.5 35zM1841 -31q0 -16 13.5 -28.5 t29.5 -12.5t28.5 12.5t12.5 28.5t-13.5 28.5t-29.5 12.5t-28.5 -12t-12.5 -29zM1878 80q0 -16 12.5 -28.5t28.5 -12.5t27.5 12.5t11.5 28.5t-12.5 27.5t-28.5 11.5q-39 0 -39 -39zM1911 944q0 16 12 28.5t29 12.5q16 0 29.5 -12.5t13.5 -28.5q0 -18 -12.5 -30.5t-28.5 -12.5 t-29.5 12.5t-13.5 30.5zM2015 870q0 16 12.5 28.5t28.5 12.5t28.5 -12.5t12.5 -28.5t-12 -28.5t-29 -12.5q-16 0 -28.5 12.5t-12.5 28.5zM2050 2l39 -84q12 18 29.5 39t17.5 31t-7 35.5t-15 42.5zM2105 791q0 14 9.5 24t23.5 10t25.5 -10t11.5 -24t-10.5 -24.5t-24.5 -10.5 t-24.5 10t-10.5 25zM2198 406q0 -8 3 -17.5t13 -9.5t18.5 9t14.5 21.5t9 26t3 21.5t-3 17t-13 9t-18.5 -9t-14.5 -21.5t-9 -25.5t-3 -21z" />
<glyph unicode="&#xa8;" horiz-adv-x="1187" d="M209 1331v266h266v-266h-266zM680 1331v266h266v-266h-266z" />
<glyph unicode="&#xa9;" horiz-adv-x="1323" d="M82 633q0 113 44 218t120 186t174 129t209 48q78 0 151.5 -21.5t124.5 -59.5v53h295v-1196q0 -123 -31.5 -209t-82 -143.5t-112 -90t-120.5 -48t-108.5 -19.5t-73.5 -4q-174 0 -307 71l-97 269q92 -47 184.5 -69.5t157.5 -22.5q33 0 84 6t97.5 35.5t80 91t33.5 172.5v121 q-53 -41 -125.5 -67t-150.5 -26q-113 0 -212.5 46.5t-174 125t-117.5 183t-43 221.5zM371 631q0 -66 25.5 -124t70.5 -102.5t104.5 -70t124.5 -25.5q61 0 112.5 19.5t98.5 58.5v498q-43 37 -100 56.5t-109 19.5q-68 0 -128 -26t-104 -71t-69.5 -104.5t-25.5 -128.5z" />
<glyph unicode="&#xaa;" horiz-adv-x="802" d="M41 1116q0 76 38 129t100.5 85t141 42t162.5 -2q-12 106 -139 107q-35 0 -71.5 -14.5t-84.5 -55.5l-129 131q137 131 312 131q78 0 138 -24.5t101 -65.5q51 -51 70.5 -111.5t19.5 -154.5v-414h-215v25q-43 -25 -89 -34t-103 -9q-111 0 -181.5 64.5t-70.5 170.5zM262 1133 q0 -27 22.5 -46.5t59.5 -19.5q69 0 139 39v100q-43 4 -83 3t-70.5 -8t-49 -24.5t-18.5 -43.5z" />
<glyph unicode="&#xab;" horiz-adv-x="1261" d="M41 559l369 557h305l-369 -557l367 -559h-303zM551 559l364 557h306l-369 -557l369 -559h-306z" />
<glyph unicode="&#xac;" horiz-adv-x="1376" d="M82 895v274h1171v-774h-274v500h-897z" />
<glyph unicode="&#xad;" horiz-adv-x="765" d="M61 532v275h644v-275h-644z" />
<glyph unicode="&#xae;" horiz-adv-x="1859" d="M51 850q0 182 68.5 342t188.5 279.5t280 188.5t342 69t342 -69t279.5 -188.5t188 -279.5t68.5 -342t-68.5 -342t-188 -279.5t-279.5 -188.5t-342 -69t-342 69t-280 188.5t-188.5 279.5t-68.5 342zM219 850q0 -147 56.5 -276.5t152.5 -225.5t225 -152.5t277 -56.5 q147 0 276 56.5t225.5 152.5t152.5 225.5t56 276.5t-56 276t-152.5 225.5t-225.5 153t-276 56.5t-276.5 -56.5t-225.5 -153t-152.5 -225.5t-56.5 -276zM559 317v1069h203h215q68 0 127 -22.5t103 -64.5t70 -101t26 -133q0 -80 -54.5 -157t-140.5 -120q47 -23 74.5 -52 t46.5 -79q18 -47 34.5 -93t41.5 -118q16 -45 27.5 -75.5t25.5 -53.5h-225l-76 244q-25 80 -71 131t-142 51h-82v-426h-203zM762 901h151q76 0 129.5 44t53.5 120t-53.5 122t-129.5 46h-151v-332z" />
<glyph unicode="&#xaf;" horiz-adv-x="1294" d="M193 1331v236h888v-236h-888z" />
<glyph unicode="&#xb0;" horiz-adv-x="892" d="M102 1276q0 74 28 138.5t76 111.5t112.5 74.5t138.5 27.5t138 -27.5t112.5 -75.5t76 -111.5t27.5 -137.5t-27.5 -139.5t-76 -113.5t-113 -75.5t-137.5 -27.5q-72 0 -136.5 27.5t-112.5 75.5t-77 113.5t-29 139.5zM309 1276q0 -61 44 -104.5t104 -43.5q59 0 102 43.5 t43 104.5q0 59 -43 102t-102 43q-61 0 -104.5 -43t-43.5 -102z" />
<glyph unicode="&#xb1;" horiz-adv-x="2387" d="M41 655q31 10 85 23.5t91 19.5q-6 -16 -16.5 -43.5t-21.5 -56.5t-18 -51.5t-7 -26.5q0 -10 4 -6q27 6 62.5 38t53.5 56l52 -258q-23 18 -47.5 28.5t-57.5 20.5q-10 2 -16 3t-10 1q12 -43 31.5 -82.5t49 -70.5t68.5 -49.5t88 -18.5q37 0 73 12.5t65.5 35t47 56t17.5 74.5 q0 39 -25.5 76t-68.5 37q-53 0 -76 -30.5t-23 -80.5q0 -23 7 -47q-51 8 -73 53.5t-22 90.5q0 72 44 123t120 51q29 0 46.5 -8.5t39.5 -24.5q-23 35 -30 63.5t-7 69.5q0 43 17.5 82t40.5 72q53 -37 80.5 -84t27.5 -113q0 -23 -5 -43t-11 -43q25 25 56.5 46.5t68.5 21.5 q51 0 87 -43t36 -92q0 -82 -78 -129q2 2 2 12q0 37 -24.5 64.5t-65.5 27.5t-62.5 -29.5t-21.5 -68.5q0 -37 19.5 -66t49 -49t65.5 -30.5t66 -10.5q41 0 83 10.5t76 33t54.5 58t20.5 86.5q0 10 -1 17.5t-3 17.5q-29 -12 -65 -28.5t-68 -32.5l-8 250q37 -25 65.5 -43.5 t60.5 -34.5q8 -4 7 6q-14 51 -32 92t-38 88h238q-25 -53 -40.5 -101t-25.5 -81q-4 -12 4 -8q29 16 63.5 38.5t63.5 45.5l-6 -252q-33 18 -61.5 31.5t-63.5 29.5v-37q0 -92 50 -141t138 -49q37 0 72 10t63.5 29.5t46 49.5t17.5 71q0 35 -21.5 60.5t-58.5 25.5q-31 0 -52 -29 t-32 -51q-23 23 -37 51.5t-14 58.5q0 59 29.5 100.5t95.5 41.5q35 0 66.5 -24.5t54.5 -49.5q-6 37 -6 72q0 66 30.5 117t77.5 87q27 -33 42.5 -67.5t15.5 -75.5q0 -45 -13.5 -86t-36.5 -80q23 20 49.5 36.5t59.5 16.5q53 0 94 -39.5t41 -93.5q0 -29 -12 -57.5t-32.5 -53 t-46.5 -44t-52 -27.5q12 14 17 41t5 43q0 72 -71 72q-43 0 -63.5 -41t-20.5 -78q0 -78 43 -110.5t108 -49.5q29 -10 58 -6q100 4 149 60.5t78 173.5q-39 -14 -74 -26.5t-72 -33.5q16 59 36 136t36 132q23 -27 47.5 -53t50.5 -49q10 -10 11 8l-6 68q-4 29 -7.5 56.5 t-7.5 47.5q45 -6 87 -15.5t75 -23.5q-8 -20 -17.5 -47.5t-19.5 -54.5q-4 -16 -10 -31.5t-12 -32.5q8 -35 0.5 -64.5t-17.5 -45.5q-4 -8 -13 -19.5t-26 -19.5l-88 -207q8 -27 17.5 -70t13.5 -69q2 -27 -12 -45l-117 -146q-98 45 -205.5 76t-216 49.5t-216.5 26.5t-208 8 q-96 0 -209.5 -8t-228.5 -27.5t-221.5 -49.5t-190.5 -73q-20 16 -43.5 38t-46.5 40l-53 43q-16 16 -21 31q-2 4 -2 11v12q0 10 2 34.5t5.5 51t5.5 50t2 36.5l-62 196q-8 4 -15 9t-11 12q-29 27 -36 68.5t13 80.5zM106 459q0 -8 3.5 -20.5t9.5 -25t14 -20.5t19 -8 q10 0 13 10.5t3 18.5t-4 21.5t-10.5 25.5t-15.5 21.5t-17 9.5q-10 0 -12.5 -12.5t-2.5 -20.5zM215 799q0 14 9 24.5t24 10.5q14 0 25.5 -10.5t11.5 -24.5t-10.5 -24.5t-24.5 -10.5t-24.5 10t-10.5 25zM225 -27q0 -10 25.5 -31.5t46.5 -37.5q6 18 6 57v41l-67 55 q-4 -23 -7.5 -51.5t-3.5 -32.5zM287 735q4 8 18 21.5t23 19.5q76 59 153.5 107.5t163.5 88.5t183.5 72.5t213.5 61.5q10 -25 21.5 -61.5t22 -75.5t18.5 -77t12 -69q4 -10 -16 -10q-16 0 -21 4q-10 51 -28.5 117.5t-42.5 118.5q-86 -18 -175.5 -50t-175.5 -73t-164.5 -89 t-142.5 -100q-10 -8 -22.5 -19t-20.5 -15q-4 -2 -13 11t-7 17zM289 879q0 16 11 28.5t28 12.5q16 0 29.5 -12.5t13.5 -28.5t-12.5 -28.5t-28.5 -12.5t-28.5 12t-12.5 29zM387 952q0 16 12.5 28.5t28.5 12.5t29.5 -12.5t13.5 -28.5q0 -18 -12.5 -30.5t-28.5 -12.5t-29.5 12.5 t-13.5 30.5zM391 74q0 -16 12.5 -27.5t28.5 -11.5q39 0 39 39q0 16 -12.5 28.5t-28.5 12.5t-27.5 -12.5t-11.5 -28.5zM403 -231q0 10 21 18q86 35 184.5 58.5t200.5 39t202.5 22.5t190.5 7q82 0 179.5 -6t196.5 -20.5t196.5 -38t177.5 -56.5q30 -10 30 -24q0 -16 -26 -25 q-176 -68 -345 -89.5t-366 -21.5q-219 0 -416.5 24t-402.5 93q-23 6 -23 19zM428 -35q0 -16 13.5 -28.5t29.5 -12.5t28.5 12.5t12.5 28.5t-13.5 28.5t-29.5 12.5t-28.5 -12t-12.5 -29zM494 1024q0 18 13 32.5t34 14.5q18 0 33.5 -14.5t15.5 -32.5q0 -20 -13.5 -34.5 t-33.5 -14.5t-34.5 14.5t-14.5 34.5zM596 76q6 -41 47 -62.5t94 -13.5q53 10 87 43t26 74q-6 39 -47 61.5t-94 11.5q-53 -8 -86 -41.5t-27 -72.5zM608 1085q0 23 15.5 38.5t38.5 15.5t38 -15.5t15 -38.5t-14.5 -38t-36.5 -15q-23 0 -39.5 15.5t-16.5 37.5zM752 1143 q0 23 15 39t38 16t40 -16t17 -39t-16.5 -39.5t-38.5 -16.5q-23 0 -39 16.5t-16 39.5zM899 1184q0 23 16.5 40t40.5 17q23 0 40.5 -17t17.5 -40t-16.5 -40.5t-39.5 -17.5t-41 17.5t-18 40.5zM942 166q0 -16 12.5 -28.5t28.5 -12.5t27.5 12.5t11.5 28.5t-12.5 27.5t-28.5 11.5 q-39 0 -39 -39zM952 49q0 -18 13.5 -30.5t29.5 -12.5t28.5 12.5t12.5 30.5q0 16 -13 28.5t-30 12.5q-16 0 -28.5 -12t-12.5 -29zM1055 1534l100 -27l-43 133h156l-39 -133l98 27l-2 -127l-111 39v-74q43 -4 74 -41t31 -82q0 -51 -37 -87t-88 -36q-55 0 -93 36t-38 89 q0 45 30.5 80t75.5 41v74l-108 -39zM1102 1266q26 -15 69 -15l-2 84q-53 -16 -67 -69zM1116 1202q12 -20 37 -29.5t41 -9.5t39 11.5t33 27.5q-29 18 -74 19q-18 0 -38.5 -4.5t-37.5 -14.5zM1126 141l27 -47q10 -18 20.5 -32.5t16.5 -14.5t16.5 14.5t20.5 32.5l26 47l-28 45 q-10 16 -21.5 31.5t-15.5 15.5q-6 0 -16.5 -15t-20.5 -32zM1139 1051q0 23 15 38t38 15q20 0 35.5 -16.5t15.5 -36.5q0 -23 -15.5 -38.5t-37.5 -15.5q-20 0 -35.5 15.5t-15.5 38.5zM1145 934q0 18 14.5 30.5t30.5 12.5t30.5 -12.5t14.5 -30.5t-13.5 -30.5t-29.5 -12.5 t-31.5 12t-15.5 31zM1153 836q0 14 11.5 24t25.5 10t26.5 -10t12.5 -24q0 -16 -11.5 -26.5t-25.5 -10.5t-26.5 10t-12.5 27zM1157 539q0 -14 10.5 -24.5t24.5 -10.5t24.5 10.5t10.5 24.5t-10.5 24t-26.5 10q-14 0 -23.5 -10t-9.5 -24zM1213 1319q1 -12 1 -29v-39 q33 -3 64 17q-4 25 -21.5 41t-42.5 26q-2 -4 -1 -16zM1262 823q4 31 12 69t19.5 77t22.5 75.5t21 63.5q121 -31 219.5 -65.5t185.5 -77.5t167 -94.5t164 -114.5l36 -33q-2 -4 -4 -7t-4 -7q-10 -16 -12 -13l-35 25q-154 123 -326 205t-358 129q-25 -51 -44 -119t-26 -113 q-4 -10 -18 -10q-16 0 -19 1t-1 9zM1335 51q0 -18 12.5 -30.5t28.5 -12.5q18 0 30.5 12.5t12.5 30.5q0 16 -13 28.5t-30 12.5q-18 0 -29.5 -12t-11.5 -29zM1352 166q0 -16 12 -28.5t29 -12.5q16 0 27.5 12.5t11.5 28.5t-12.5 27.5t-28.5 11.5q-39 0 -39 -39zM1360 1178 q0 23 16.5 40t40.5 17q23 0 40.5 -17t17.5 -40t-16.5 -40.5t-39.5 -17.5t-41 17.5t-18 40.5zM1513 115q-6 -39 27 -72t86 -43t95 12.5t48 61.5q6 41 -26.5 73.5t-85.5 42.5q-53 8 -95 -13t-49 -62zM1518 1135q0 23 15 39t38 16t40 -16t17 -39t-16.5 -39.5t-38.5 -16.5 q-23 0 -39 16.5t-16 39.5zM1663 1077q0 23 15.5 38t37.5 15q23 0 38 -15t15 -38t-14 -38t-37 -15t-39 15.5t-16 37.5zM1792 1016q0 18 13.5 32.5t33.5 14.5q18 0 33.5 -14.5t15.5 -32.5q0 -20 -13 -34.5t-34 -14.5q-20 0 -34.5 14t-14.5 35zM1841 -31q0 -16 13.5 -28.5 t29.5 -12.5t28.5 12.5t12.5 28.5t-13.5 28.5t-29.5 12.5t-28.5 -12t-12.5 -29zM1878 80q0 -16 12.5 -28.5t28.5 -12.5t27.5 12.5t11.5 28.5t-12.5 27.5t-28.5 11.5q-39 0 -39 -39zM1911 944q0 16 12 28.5t29 12.5q16 0 29.5 -12.5t13.5 -28.5q0 -18 -12.5 -30.5t-28.5 -12.5 t-29.5 12.5t-13.5 30.5zM2015 870q0 16 12.5 28.5t28.5 12.5t28.5 -12.5t12.5 -28.5t-12 -28.5t-29 -12.5q-16 0 -28.5 12.5t-12.5 28.5zM2050 2l39 -84q12 18 29.5 39t17.5 31t-7 35.5t-15 42.5zM2105 791q0 14 9.5 24t23.5 10t25.5 -10t11.5 -24t-10.5 -24.5t-24.5 -10.5 t-24.5 10t-10.5 25zM2198 406q0 -8 3 -17.5t13 -9.5t18.5 9t14.5 21.5t9 26t3 21.5t-3 17t-13 9t-18.5 -9t-14.5 -21.5t-9 -25.5t-3 -21z" />
<glyph unicode="&#xb2;" horiz-adv-x="907" d="M82 668l385 462q43 53 79 109.5t36 103.5q0 59 -37 89t-78 30q-119 0 -207 -125l-149 148q74 86 159.5 135t208.5 49q68 0 127.5 -19.5t103.5 -57.5t69.5 -96t25.5 -136q0 -49 -13.5 -94t-37 -86t-53 -81t-60.5 -79l-109 -137h291v-215h-741z" />
<glyph unicode="&#xb3;" horiz-adv-x="931" d="M82 856l149 154q59 -66 122 -109t132 -43q59 0 100.5 30t41.5 89q0 39 -23.5 61.5t-59.5 32.5t-77 12t-78 2l-2 170q35 0 74 2.5t71.5 12.5t54 30.5t21.5 59.5q0 51 -34.5 75.5t-86.5 24.5q-68 0 -121 -29.5t-100 -101.5l-153 156q80 98 167 141t199 43q61 0 124 -19.5 t114 -56.5t84 -92t33 -125q0 -63 -34 -114.5t-81 -83.5q55 -31 93 -84t38 -123q0 -80 -29.5 -140.5t-79 -100.5t-115 -60.5t-134.5 -20.5q-123 0 -223.5 48t-186.5 159z" />
<glyph unicode="&#xb4;" horiz-adv-x="1208" d="M401 1331l185 395h327l-295 -395h-217z" />
<glyph unicode="&#xb5;" horiz-adv-x="1304" d="M102 -514v1700h295v-707q0 -55 15.5 -102t46 -82t75 -55.5t101.5 -20.5q147 0 254 100v867h293v-1186h-293v98q-57 -61 -149.5 -94t-174.5 -33q-102 0 -170 27v-512h-293z" />
<glyph unicode="&#xb6;" horiz-adv-x="1292" d="M82 1186q0 131 63.5 235.5t173.5 157.5q137 59 345 59h669v-170h-137v-2037h-209v2037h-151v-2037h-222v1263q-80 6 -126 12.5t-85 20.5q-72 23 -131 68t-101 105.5t-65.5 133t-23.5 152.5z" />
<glyph unicode="&#xb7;" horiz-adv-x="548" d="M123 614v314h313v-314h-313z" />
<glyph unicode="&#xb8;" horiz-adv-x="1318" d="M535 -463l14 70q16 -10 38.5 -17.5t43.5 -7.5q53 0 88 32t35 73q0 47 -34 79.5t-89 32.5q-12 0 -25.5 -2t-23.5 -4l39 199h161l-24 -109q104 -16 151 -77.5t47 -133.5q0 -35 -15 -69.5t-45 -63t-70 -47t-89 -18.5q-63 0 -111 14t-91 49z" />
<glyph unicode="&#xb9;" horiz-adv-x="516" d="M82 1348v196l352 139v-1009h-209v731z" />
<glyph unicode="&#xba;" horiz-adv-x="925" d="M41 1276q0 82 30.5 153.5t84 125t124 84t152.5 30.5q80 0 151.5 -30.5t125 -84t84 -125t30.5 -153.5t-30.5 -153.5t-84 -126t-125 -85t-151.5 -30.5q-82 0 -152.5 30.5t-124 85t-84 126t-30.5 153.5zM248 1276q0 -43 14 -79t40 -63.5t59.5 -43t70.5 -15.5t71 15.5 t58.5 43t39.5 63.5t15 79q0 41 -15 78t-39.5 63.5t-58.5 42t-71 15.5q-76 0 -130 -56.5t-54 -142.5z" />
<glyph unicode="&#xbb;" horiz-adv-x="1261" d="M41 0l369 559l-369 557h305l365 -557l-365 -559h-305zM547 0l368 559l-368 557h305l369 -557l-369 -559h-305z" />
<glyph unicode="&#xbc;" horiz-adv-x="1708" d="M82 1348v196l352 139v-1009h-209v731zM86 -104l1100 1732h254l-1098 -1732h-256zM846 205v153l465 625h182v-584h133v-194h-133v-205h-215v205h-432zM1096 401l182 -2v242z" />
<glyph unicode="&#xbd;" horiz-adv-x="1867" d="M82 1348v196l352 139v-1009h-209v731zM86 -104l1100 1732h254l-1098 -1732h-256zM1044 0l386 463q43 53 78.5 109.5t35.5 103.5q0 59 -37 89t-77 30q-119 0 -207 -125l-150 147q74 86 160 135t209 49q68 0 127 -19t103 -57t68.5 -96.5t24.5 -136.5q0 -100 -49 -180 t-112 -160l-109 -139l291 2v-215h-742z" />
<glyph unicode="&#xbe;" horiz-adv-x="1980" d="M82 856l149 154q59 -66 122 -109t132 -43q59 0 100.5 30t41.5 89q0 39 -23.5 61.5t-59.5 32.5t-77 12t-78 2l-2 170q35 0 74 2.5t71.5 12.5t54 30.5t21.5 59.5q0 51 -34.5 75.5t-86.5 24.5q-68 0 -121 -29.5t-100 -101.5l-153 156q80 98 167 141t199 43q61 0 124 -19.5 t114 -56.5t84 -92t33 -125q0 -63 -34 -114.5t-81 -83.5q55 -31 93 -84t38 -123q0 -80 -29.5 -140.5t-79 -100.5t-115 -60.5t-134.5 -20.5q-123 0 -223.5 48t-186.5 159zM360 -104l1098 1732h256l-1100 -1732h-254zM1118 205v153l465 625h184v-584h131v-194h-131v-205h-217 v205h-432zM1370 401l180 -2v242z" />
<glyph unicode="&#xbf;" horiz-adv-x="1155" d="M82 416q0 158 86 273.5t215 174.5l106 49q51 23 77 60t26 112v99h293v-101q0 -96 -12.5 -159.5t-37 -108.5t-63.5 -73.5t-92 -53.5l-94 -43q-117 -53 -156 -111.5t-39 -115.5q0 -35 16.5 -67t45 -56.5t70.5 -39.5t93 -15q78 0 149 26.5t130 89.5l178 -206 q-86 -86 -204.5 -134.5t-272.5 -48.5q-109 0 -202 32t-162.5 91.5t-109.5 141t-40 184.5zM586 1333v305h305v-305h-305z" />
<glyph unicode="&#xc0;" horiz-adv-x="1816" d="M20 0l775 1638h247l775 -1638h-349l-151 328h-795l-153 -328h-349zM598 2179h330l182 -395h-217zM643 592h549l-272 590z" />
<glyph unicode="&#xc1;" horiz-adv-x="1816" d="M20 0l775 1638h247l775 -1638h-349l-151 328h-795l-153 -328h-349zM643 592h549l-272 590zM717 1784l184 395h328l-295 -395h-217z" />
<glyph unicode="&#xc2;" horiz-adv-x="1816" d="M20 0l775 1638h247l775 -1638h-349l-151 328h-795l-153 -328h-349zM522 1784l264 395h265l264 -395h-221l-174 174l-177 -174h-221zM643 592h549l-272 590z" />
<glyph unicode="&#xc3;" horiz-adv-x="1816" d="M20 0l775 1638h247l775 -1638h-349l-151 328h-795l-153 -328h-349zM500 1784q0 61 15 123.5t47 113t83 82t123 31.5q45 0 87 -14.5t81 -30.5t75 -30.5t66 -14.5q41 0 61.5 26.5t26.5 63.5h176q-2 -63 -17 -125.5t-47 -113t-82 -81t-124 -30.5q-47 0 -88 14t-79 30.5 t-74.5 31t-75.5 14.5q-37 0 -55.5 -28.5t-22.5 -61.5h-176zM643 592h549l-272 590z" />
<glyph unicode="&#xc4;" horiz-adv-x="1816" d="M20 0l775 1638h247l775 -1638h-349l-151 328h-795l-153 -328h-349zM549 1784v266h266v-266h-266zM643 592h549l-272 590zM1020 1784v266h266v-266h-266z" />
<glyph unicode="&#xc5;" horiz-adv-x="1816" d="M20 0l775 1638h247l775 -1638h-349l-151 328h-795l-153 -328h-349zM643 592h549l-272 590zM678 2028q0 49 19.5 93t52 76.5t76.5 52t94 19.5q49 0 94 -19.5t77.5 -52t52 -76.5t19.5 -93q0 -51 -19.5 -95.5t-52 -77t-77.5 -52t-94 -19.5t-93.5 19.5t-77 52t-52 76.5 t-19.5 96zM829 2028q0 -39 27 -65t64 -26t63.5 26t26.5 65q0 37 -27 62.5t-63 25.5q-37 0 -64 -26t-27 -62z" />
<glyph unicode="&#xc6;" horiz-adv-x="2222" d="M0 0l948 1638h246v-2h836l28 -262h-770l39 -391h762l27 -256h-760l47 -451h770l29 -276h-754h-328l-35 328h-548l-189 -328h-348zM686 592h373l-60 551z" />
<glyph unicode="&#xc7;" horiz-adv-x="1662" d="M102 819q0 178 69 333t187.5 270.5t278.5 181t342 65.5q211 0 386 -88t292 -229l-219 -226q-76 111 -196 176.5t-263 65.5q-115 0 -216 -44t-177 -119t-120 -174t-44 -212q0 -111 44 -210t120 -174t177 -119t216 -44q154 0 269.5 69t193.5 181l221 -227 q-113 -135 -267.5 -220t-340.5 -102l-21 -90q104 -16 151.5 -77.5t47.5 -133.5q0 -35 -15.5 -69.5t-45 -63t-69.5 -47t-89 -18.5q-63 0 -111.5 14t-91.5 49l14 70q16 -10 39 -17.5t43 -7.5q53 0 88 32t35 73q0 47 -33.5 79.5t-89.5 32.5q-12 0 -25.5 -2t-23.5 -4l35 180 q-168 14 -312.5 86t-251 185.5t-167 261t-60.5 313.5z" />
<glyph unicode="&#xc8;" horiz-adv-x="1327" d="M164 0v1636h1081v-262h-770v-391h760v-256h-760v-451h770v-276h-1081zM373 2179h329l183 -395h-217z" />
<glyph unicode="&#xc9;" horiz-adv-x="1327" d="M164 0v1636h1081v-262h-770v-391h760v-256h-760v-451h770v-276h-1081zM547 1784l184 395h328l-295 -395h-217z" />
<glyph unicode="&#xca;" horiz-adv-x="1327" d="M164 0v1636h1081v-262h-770v-391h760v-256h-760v-451h770v-276h-1081zM313 1784l265 395h264l264 -395h-221l-174 174l-176 -174h-222z" />
<glyph unicode="&#xcb;" horiz-adv-x="1327" d="M164 0v1636h1081v-262h-770v-391h760v-256h-760v-451h770v-276h-1081zM332 1784v266h266v-266h-266zM803 1784v266h266v-266h-266z" />
<glyph unicode="&#xcc;" horiz-adv-x="624" d="M4 2179h330l182 -395h-217zM164 0v1636h317v-1636h-317z" />
<glyph unicode="&#xcd;" horiz-adv-x="624" d="M102 1784l185 395h327l-295 -395h-217zM164 0v1636h317v-1636h-317z" />
<glyph unicode="&#xce;" horiz-adv-x="624" d="M-72 1784l265 395h264l264 -395h-221l-174 174l-176 -174h-222zM164 0v1636h317v-1636h-317z" />
<glyph unicode="&#xcf;" horiz-adv-x="624" d="M-47 1784v266h266v-266h-266zM164 0v1636h317v-1636h-317zM424 1784v266h266v-266h-266z" />
<glyph unicode="&#xd0;" horiz-adv-x="1701" d="M41 688v275h123v675h684q168 0 310 -64.5t244.5 -176t160 -261t57.5 -317.5q0 -170 -57.5 -318.5t-160 -260t-244.5 -176t-310 -64.5h-684v688h-123zM481 270h279q113 0 211 45t170.5 122t113.5 178t41 212q0 104 -41 206t-112.5 180.5t-170 127t-212.5 48.5h-279v-426 h267v-275h-267v-418z" />
<glyph unicode="&#xd1;" horiz-adv-x="1669" d="M164 0v1638h356l694 -1069v1069h312v-1638h-312l-739 1149v-1149h-311zM426 1784q0 61 15.5 123.5t47 113t83 82t122.5 31.5q45 0 87 -14.5t81 -30.5t75 -30.5t67 -14.5q41 0 61 26.5t27 63.5h176q-2 -63 -17.5 -125.5t-47.5 -113t-82 -81t-124 -30.5q-47 0 -88 14 t-78.5 30.5t-74.5 31t-76 14.5q-37 0 -55.5 -28.5t-22.5 -61.5h-176z" />
<glyph unicode="&#xd2;" horiz-adv-x="1923" d="M102 819q0 178 69 334t187.5 270.5t277.5 180t337 65.5t335.5 -65.5t276.5 -181t187.5 -270.5t68.5 -333q0 -176 -68.5 -331.5t-187.5 -270.5t-276.5 -181.5t-335.5 -66.5t-337 66.5t-277.5 181.5t-187.5 269.5t-69 332.5zM422 819q0 -111 43 -211t117.5 -175t175 -119 t215.5 -44q113 0 213 44t175 119t118 175t43 211q0 113 -43 212t-118 174t-175.5 119t-212.5 44q-115 0 -215.5 -44t-175 -119t-117.5 -174t-43 -212zM649 2179h330l182 -395h-217z" />
<glyph unicode="&#xd3;" horiz-adv-x="1923" d="M102 819q0 178 69 334t187.5 270.5t277.5 180t337 65.5t335.5 -65.5t276.5 -181t187.5 -270.5t68.5 -333q0 -176 -68.5 -331.5t-187.5 -270.5t-276.5 -181.5t-335.5 -66.5t-337 66.5t-277.5 181.5t-187.5 269.5t-69 332.5zM422 819q0 -111 43 -211t117.5 -175t175 -119 t215.5 -44q113 0 213 44t175 119t118 175t43 211q0 113 -43 212t-118 174t-175.5 119t-212.5 44q-115 0 -215.5 -44t-175 -119t-117.5 -174t-43 -212zM788 1784l185 395h327l-294 -395h-218z" />
<glyph unicode="&#xd4;" horiz-adv-x="1923" d="M102 819q0 178 69 334t187.5 270.5t277.5 180t337 65.5t335.5 -65.5t276.5 -181t187.5 -270.5t68.5 -333q0 -176 -68.5 -331.5t-187.5 -270.5t-276.5 -181.5t-335.5 -66.5t-337 66.5t-277.5 181.5t-187.5 269.5t-69 332.5zM422 819q0 -111 43 -211t117.5 -175t175 -119 t215.5 -44q113 0 213 44t175 119t118 175t43 211q0 113 -43 212t-118 174t-175.5 119t-212.5 44q-115 0 -215.5 -44t-175 -119t-117.5 -174t-43 -212zM575 1784l265 395h264l264 -395h-221l-174 174l-176 -174h-222z" />
<glyph unicode="&#xd5;" horiz-adv-x="1923" d="M102 819q0 178 69 334t187.5 270.5t277.5 180t337 65.5t335.5 -65.5t276.5 -181t187.5 -270.5t68.5 -333q0 -176 -68.5 -331.5t-187.5 -270.5t-276.5 -181.5t-335.5 -66.5t-337 66.5t-277.5 181.5t-187.5 269.5t-69 332.5zM422 819q0 -111 43 -211t117.5 -175t175 -119 t215.5 -44q113 0 213 44t175 119t118 175t43 211q0 113 -43 212t-118 174t-175.5 119t-212.5 44q-115 0 -215.5 -44t-175 -119t-117.5 -174t-43 -212zM551 1784q0 61 15.5 123.5t47 113t83 82t122.5 31.5q45 0 87 -14.5t81 -30.5t75 -30.5t66 -14.5q41 0 61.5 26.5 t27.5 63.5h176q-2 -63 -17.5 -125.5t-47.5 -113t-82 -81t-124 -30.5q-47 0 -88 14t-78.5 30.5t-74.5 31t-76 14.5q-37 0 -55.5 -28.5t-22.5 -61.5h-176z" />
<glyph unicode="&#xd6;" horiz-adv-x="1923" d="M102 819q0 178 69 334t187.5 270.5t277.5 180t337 65.5t335.5 -65.5t276.5 -181t187.5 -270.5t68.5 -333q0 -176 -68.5 -331.5t-187.5 -270.5t-276.5 -181.5t-335.5 -66.5t-337 66.5t-277.5 181.5t-187.5 269.5t-69 332.5zM422 819q0 -111 43 -211t117.5 -175t175 -119 t215.5 -44q113 0 213 44t175 119t118 175t43 211q0 113 -43 212t-118 174t-175.5 119t-212.5 44q-115 0 -215.5 -44t-175 -119t-117.5 -174t-43 -212zM596 1784v266h266v-266h-266zM1067 1784v266h266v-266h-266z" />
<glyph unicode="&#xd7;" horiz-adv-x="1349" d="M143 1096l215 215l328 -326l309 309l215 -215l-307 -309l324 -328l-215 -215l-326 326l-307 -309l-219 215l309 311z" />
<glyph unicode="&#xd8;" horiz-adv-x="1923" d="M102 819q0 178 69 334t187.5 270.5t277.5 180t337 65.5q117 0 220 -27.5t202 -78.5l90 123h254l-176 -242q129 -117 203.5 -274.5t74.5 -350.5q0 -176 -68.5 -331.5t-187.5 -270.5t-276.5 -181.5t-335.5 -66.5q-117 0 -222.5 28t-199.5 79l-92 -123h-254l178 242 q-129 117 -205 277.5t-76 346.5zM422 819q0 -106 39 -201.5t108 -171.5l641 869q-123 53 -237 53q-115 0 -215.5 -44t-175 -119t-117.5 -174t-43 -212zM733 324q125 -53 240 -54q113 0 213 44t175 119t118 175t43 211t-39 205t-109 168z" />
<glyph unicode="&#xd9;" horiz-adv-x="1701" d="M143 739v899h318v-901q0 -94 26.5 -177t77.5 -144.5t128 -97t175 -35.5q104 0 181 33.5t127.5 94t76 142.5t25.5 180v905h321v-888q0 -164 -49 -305.5t-142 -247t-227 -166t-307 -60.5q-168 0 -303 59.5t-230 163t-146.5 244t-51.5 301.5zM549 2179h330l182 -395h-217z " />
<glyph unicode="&#xda;" horiz-adv-x="1701" d="M143 739v899h318v-901q0 -94 26.5 -177t77.5 -144.5t128 -97t175 -35.5q104 0 181 33.5t127.5 94t76 142.5t25.5 180v905h321v-888q0 -164 -49 -305.5t-142 -247t-227 -166t-307 -60.5q-168 0 -303 59.5t-230 163t-146.5 244t-51.5 301.5zM676 1784l184 395h328 l-295 -395h-217z" />
<glyph unicode="&#xdb;" horiz-adv-x="1701" d="M143 739v899h318v-901q0 -94 26.5 -177t77.5 -144.5t128 -97t175 -35.5q104 0 181 33.5t127.5 94t76 142.5t25.5 180v905h321v-888q0 -164 -49 -305.5t-142 -247t-227 -166t-307 -60.5q-168 0 -303 59.5t-230 163t-146.5 244t-51.5 301.5zM475 1784l264 395h265l264 -395 h-221l-175 174l-176 -174h-221z" />
<glyph unicode="&#xdc;" horiz-adv-x="1701" d="M143 739v899h318v-901q0 -94 26.5 -177t77.5 -144.5t128 -97t175 -35.5q104 0 181 33.5t127.5 94t76 142.5t25.5 180v905h321v-888q0 -164 -49 -305.5t-142 -247t-227 -166t-307 -60.5q-168 0 -303 59.5t-230 163t-146.5 244t-51.5 301.5zM500 1784v266h266v-266h-266z M971 1784v266h266v-266h-266z" />
<glyph unicode="&#xdd;" horiz-adv-x="1662" d="M31 1636h368l426 -688l445 688h383l-668 -966v-672h-321v676zM629 1784l184 395h328l-295 -395h-217z" />
<glyph unicode="&#xde;" horiz-adv-x="1286" d="M164 0v1636h317v-303h211q115 0 215.5 -38t176 -105.5t118.5 -162.5t43 -208q0 -115 -43 -210t-118.5 -162.5t-176 -105.5t-215.5 -38h-211v-303h-317zM481 557h150q63 0 118.5 18.5t96.5 52.5t64.5 84t23.5 111q0 63 -23.5 112.5t-64.5 84.5t-96.5 53.5t-118.5 18.5 h-150v-535z" />
<glyph unicode="&#xdf;" horiz-adv-x="1239" d="M123 0v1182q0 125 27.5 226t89 171t158 107.5t231.5 37.5q94 0 178 -30.5t148.5 -88t102.5 -138.5t38 -181q0 -129 -59.5 -219t-157.5 -137q55 -20 108 -56t95 -89.5t69 -125t27 -159.5q0 -248 -127 -389.5t-375 -141.5q-39 0 -74 5.5t-74 17.5v260q39 -14 68 -18.5 t61 -4.5q57 0 99.5 23.5t69 62.5t40 90.5t13.5 108.5q0 80 -27 135.5t-73 88t-108.5 43t-131.5 1.5v238q139 -6 199.5 60.5t60.5 170.5q0 92 -44 152.5t-143 60.5q-113 0 -153.5 -78.5t-40.5 -250.5v-1135h-295z" />
<glyph unicode="&#xe0;" horiz-adv-x="1187" d="M61 328q0 100 44.5 175t120 125t177 74.5t218.5 24.5h170q0 104 -67 165.5t-196 61.5q-61 0 -126.5 -22.5t-131.5 -81.5l-174 176q94 92 218 140t255 48q123 0 219.5 -38.5t155.5 -100.5q78 -78 109.5 -175t31.5 -245v-655h-297v63q-78 -53 -164.5 -73.5t-179.5 -20.5 q-86 0 -155.5 25.5t-120.5 74t-79 114t-28 145.5zM244 1726h329l183 -395h-217zM356 354q0 -61 48.5 -100t123.5 -39q66 0 130 20.5t130 59.5v219h-135q-61 0 -115.5 -8t-94.5 -27.5t-63.5 -50.5t-23.5 -74z" />
<glyph unicode="&#xe1;" horiz-adv-x="1187" d="M61 328q0 100 44.5 175t120 125t177 74.5t218.5 24.5h170q0 104 -67 165.5t-196 61.5q-61 0 -126.5 -22.5t-131.5 -81.5l-174 176q94 92 218 140t255 48q123 0 219.5 -38.5t155.5 -100.5q78 -78 109.5 -175t31.5 -245v-655h-297v63q-78 -53 -164.5 -73.5t-179.5 -20.5 q-86 0 -155.5 25.5t-120.5 74t-79 114t-28 145.5zM356 354q0 -61 48.5 -100t123.5 -39q66 0 130 20.5t130 59.5v219h-135q-61 0 -115.5 -8t-94.5 -27.5t-63.5 -50.5t-23.5 -74zM422 1331l184 395h328l-295 -395h-217z" />
<glyph unicode="&#xe2;" horiz-adv-x="1187" d="M61 328q0 100 44.5 176t120 126t177 74.5t218.5 22.5h170q0 106 -67 166.5t-196 60.5q-61 0 -126.5 -22.5t-131.5 -81.5l-174 176q94 92 218 140t255 48q123 0 219.5 -38.5t155.5 -100.5q78 -78 109.5 -175t31.5 -245v-655h-297v63q-78 -53 -164.5 -73.5t-179.5 -20.5 q-86 0 -155.5 25.5t-120.5 74t-79 114t-28 145.5zM186 1331l265 395h264l264 -395h-221l-174 174l-176 -174h-222zM356 354q0 -61 48.5 -100t123.5 -39q66 0 130 20.5t130 59.5v219h-135q-61 0 -115.5 -8t-94.5 -27.5t-63.5 -50.5t-23.5 -74z" />
<glyph unicode="&#xe3;" horiz-adv-x="1187" d="M61 328q0 100 44.5 175t120 125t177 74.5t218.5 24.5h170q0 104 -67 165.5t-196 61.5q-61 0 -126.5 -22.5t-131.5 -81.5l-174 176q94 92 218 140t255 48q123 0 219.5 -38.5t155.5 -100.5q78 -78 109.5 -175t31.5 -245v-655h-297v63q-78 -53 -164.5 -73.5t-179.5 -20.5 q-86 0 -155.5 25.5t-120.5 74t-79 114t-28 145.5zM178 1331q0 61 15.5 124t47 113t83 81.5t122.5 31.5q45 0 87 -14t81 -30.5t75 -31t67 -14.5q41 0 61.5 27t26.5 63h176q-2 -63 -17.5 -125.5t-47 -112.5t-82 -81t-123.5 -31q-47 0 -88 14.5t-80 31t-76 30.5t-74 14 t-55.5 -28.5t-22.5 -61.5h-176zM356 354q0 -61 48.5 -100t123.5 -39q66 0 130 20.5t130 59.5v219h-135q-61 0 -115.5 -8t-94.5 -27.5t-63.5 -50.5t-23.5 -74z" />
<glyph unicode="&#xe4;" horiz-adv-x="1187" d="M61 328q0 100 44.5 175t120 125t177 74.5t218.5 24.5h170q0 104 -67 165.5t-196 61.5q-61 0 -126.5 -22.5t-131.5 -81.5l-174 176q94 92 218 140t255 48q123 0 219.5 -38.5t155.5 -100.5q78 -78 109.5 -175t31.5 -245v-655h-297v63q-78 -53 -164.5 -73.5t-179.5 -20.5 q-86 0 -155.5 25.5t-120.5 74t-79 114t-28 145.5zM209 1331v266h266v-266h-266zM356 354q0 -61 48.5 -100t123.5 -39q66 0 130 20.5t130 59.5v219h-135q-61 0 -115.5 -8t-94.5 -27.5t-63.5 -50.5t-23.5 -74zM680 1331v266h266v-266h-266z" />
<glyph unicode="&#xe5;" horiz-adv-x="1187" d="M61 328q0 100 44.5 176t120 126t177 74.5t218.5 22.5h170q0 106 -67 166.5t-196 60.5q-61 0 -126.5 -22.5t-131.5 -81.5l-174 176q94 92 218 140t255 48q123 0 219.5 -38.5t155.5 -100.5q78 -78 109.5 -175t31.5 -245v-655h-297v63q-78 -53 -164.5 -73.5t-179.5 -20.5 q-86 0 -155.5 25.5t-120.5 74t-79 114t-28 145.5zM346 1575q0 49 19.5 93t52.5 77t77 52.5t93 19.5t94 -19.5t78 -52.5t52 -77t19 -93q0 -51 -19 -95t-52 -77t-78 -52.5t-94 -19.5t-93 19.5t-77 52.5t-52.5 77t-19.5 95zM356 354q0 -61 48.5 -100t123.5 -39q66 0 130 20.5 t130 59.5v219h-135q-61 0 -115.5 -8t-94.5 -27.5t-63.5 -50.5t-23.5 -74zM498 1575q0 -39 26.5 -64.5t63.5 -25.5t63.5 25.5t26.5 64.5q0 37 -26.5 62.5t-63.5 25.5t-63.5 -25.5t-26.5 -62.5z" />
<glyph unicode="&#xe6;" horiz-adv-x="2082" d="M61 328q0 100 44.5 175t120 125t177 74.5t218.5 24.5h170q0 227 -263 227q-61 0 -126.5 -22.5t-131.5 -81.5l-174 176q94 92 218 140t255 48q123 0 219.5 -38.5t155.5 -100.5l21 -22q86 76 193.5 118.5t230.5 42.5q125 0 239.5 -46t202.5 -128t139 -195.5t51 -250.5 q0 -29 -3 -59.5t-7 -63.5h-946q35 -104 120 -177t216 -73q80 0 159.5 27.5t133.5 75.5l186 -187q-123 -92 -240.5 -130t-248.5 -38q-92 0 -173 22.5t-153 63.5v-55h-277v63q-78 -53 -158.5 -73.5t-185.5 -20.5q-86 0 -155.5 25.5t-120.5 74t-79 114t-28 145.5zM356 354 q0 -61 48.5 -100t123.5 -39q66 0 130 20.5t130 59.5v219h-135q-61 0 -115.5 -8t-94.5 -27.5t-63.5 -50.5t-23.5 -74zM1065 709h647q-35 113 -124 181t-202 68q-111 0 -198.5 -68.5t-122.5 -180.5z" />
<glyph unicode="&#xe7;" horiz-adv-x="1212" d="M82 592q0 131 49 244.5t133 197.5t199 132t246 48q135 0 255.5 -49t213.5 -149l-199 -203q-45 59 -109.5 98t-156.5 39q-68 0 -128.5 -28.5t-106.5 -76.5t-72.5 -113.5t-26.5 -139.5t26.5 -139.5t71.5 -113.5t106.5 -77t129.5 -29q88 0 159.5 42t114.5 108l205 -205 q-78 -86 -182.5 -138t-221.5 -67l-20 -90q104 -16 151.5 -77.5t47.5 -133.5q0 -35 -15.5 -69.5t-45 -63t-69.5 -47t-89 -18.5q-63 0 -111.5 14t-91.5 49l14 70q16 -10 39 -17.5t43 -7.5q53 0 88 32t35 73q0 47 -34 79.5t-89 32.5q-12 0 -25.5 -2t-23.5 -4l35 180 q-115 14 -214.5 66.5t-173 134.5t-115.5 188.5t-42 229.5z" />
<glyph unicode="&#xe8;" d="M82 592q0 129 49 242.5t135 197.5t201 133t246 49q125 0 239.5 -46t202.5 -128t139.5 -195.5t51.5 -250.5q0 -29 -3.5 -59.5t-7.5 -63.5h-946q35 -104 120 -177t216 -73q80 0 160 27.5t133 75.5l186 -187q-123 -92 -240.5 -130t-248.5 -38q-133 0 -249 49.5t-201 133.5 t-134 197.5t-49 242.5zM381 1726h330l182 -395h-217zM389 709h647q-35 113 -124 181t-201 68q-111 0 -199 -68.5t-123 -180.5z" />
<glyph unicode="&#xe9;" d="M82 592q0 129 49 242.5t135 197.5t201 133t246 49q125 0 239.5 -46t202.5 -128t139.5 -195.5t51.5 -250.5q0 -29 -3.5 -59.5t-7.5 -63.5h-946q35 -104 120 -177t216 -73q80 0 160 27.5t133 75.5l186 -187q-123 -92 -240.5 -130t-248.5 -38q-133 0 -249 49.5t-201 133.5 t-134 197.5t-49 242.5zM389 709h647q-35 113 -124 181t-201 68q-111 0 -199 -68.5t-123 -180.5zM526 1331l185 395h327l-295 -395h-217z" />
<glyph unicode="&#xea;" d="M82 592q0 129 49 242.5t135 197.5t201 133t246 49q125 0 239.5 -46t202.5 -128t139.5 -195.5t51.5 -250.5q0 -29 -3.5 -59.5t-7.5 -63.5h-946q35 -104 120 -177t216 -73q80 0 160 27.5t133 75.5l186 -187q-123 -92 -240.5 -130t-248.5 -38q-133 0 -249 49.5t-201 133.5 t-134 197.5t-49 242.5zM313 1331l265 395h264l264 -395h-221l-174 174l-176 -174h-222zM389 709h647q-35 113 -124 181t-201 68q-111 0 -199 -68.5t-123 -180.5z" />
<glyph unicode="&#xeb;" d="M82 592q0 129 49 242.5t135 197.5t201 133t246 49q125 0 239.5 -46t202.5 -128t139.5 -195.5t51.5 -250.5q0 -29 -3.5 -59.5t-7.5 -63.5h-946q35 -104 120 -177t216 -73q80 0 160 27.5t133 75.5l186 -187q-123 -92 -240.5 -130t-248.5 -38q-133 0 -249 49.5t-201 133.5 t-134 197.5t-49 242.5zM338 1331v266h266v-266h-266zM389 709h647q-35 113 -124 181t-201 68q-111 0 -199 -68.5t-123 -180.5zM809 1331v266h266v-266h-266z" />
<glyph unicode="&#xec;" horiz-adv-x="573" d="M-20 1726h329l183 -395h-218zM127 0v1186h299v-1186h-299z" />
<glyph unicode="&#xed;" horiz-adv-x="573" d="M61 1331l185 395h327l-294 -395h-218zM127 0v1186h299v-1186h-299z" />
<glyph unicode="&#xee;" horiz-adv-x="573" d="M-121 1331l264 395h265l264 -395h-221l-175 174l-176 -174h-221zM127 0v1186h299v-1186h-299z" />
<glyph unicode="&#xef;" horiz-adv-x="573" d="M-90 1331v266h266v-266h-266zM127 0v1186h299v-1186h-299zM381 1331v266h266v-266h-266z" />
<glyph unicode="&#xf0;" horiz-adv-x="1380" d="M82 510q0 123 49 224.5t133 174t194.5 113.5t233.5 41q94 0 189 -35q-27 63 -79 126t-124 116l-229 -168l-121 168l159 116q-55 25 -112.5 41.5t-114.5 20.5l223 221q137 -25 262 -94l201 147l123 -168l-143 -102q82 -68 154.5 -155t124.5 -189t83 -219t31 -246 q0 -195 -52.5 -324t-139.5 -206.5t-201.5 -110.5t-237.5 -33q-129 0 -239.5 45t-191.5 121t-128 173.5t-47 201.5zM399 526q0 -55 22.5 -104t62.5 -86t94.5 -58.5t117.5 -21.5q61 0 117.5 21.5t98.5 58.5t67 86t25 104t-25 104.5t-67 85.5t-98 57.5t-118 21.5 q-63 0 -117.5 -21.5t-94.5 -57.5t-62.5 -85t-22.5 -105z" />
<glyph unicode="&#xf1;" horiz-adv-x="1302" d="M123 0v1184h297v-88q27 27 65.5 49t80.5 37.5t86 23.5t85 8q88 0 172 -28.5t148.5 -88t103.5 -153.5t39 -223v-721h-295v707q0 63 -19.5 111t-52 80t-74.5 47.5t-87 15.5q-68 0 -133.5 -24t-118.5 -75v-862h-297zM248 1331q0 61 15.5 124t47 113t82.5 81.5t123 31.5 q45 0 87 -14t81 -30.5t75 -31t66 -14.5q41 0 61.5 27t26.5 63h177q-2 -63 -17.5 -125.5t-47.5 -112.5t-82 -81t-124 -31q-47 0 -88 14.5t-80 31t-75.5 30.5t-73.5 14t-55.5 -28.5t-22.5 -61.5h-176z" />
<glyph unicode="&#xf2;" d="M82 592q0 129 50 242.5t136 198.5t201 133t244 48q131 0 246.5 -48t201.5 -131t135.5 -197.5t49.5 -245.5q0 -133 -49.5 -247t-135.5 -196.5t-201.5 -131t-246.5 -48.5t-246 48.5t-201 132t-135 197.5t-49 245zM375 592q0 -76 26.5 -141.5t72.5 -114.5t107.5 -77 t131.5 -28t131 28t107 77t73 114.5t27 141.5t-27 141.5t-73 114.5t-107.5 76.5t-130.5 27.5q-70 0 -131.5 -27.5t-107.5 -76.5t-72.5 -114.5t-26.5 -141.5zM395 1726h330l182 -395h-217z" />
<glyph unicode="&#xf3;" d="M82 592q0 129 50 242.5t136 198.5t201 133t244 48q131 0 246.5 -48t201.5 -131t135.5 -197.5t49.5 -245.5q0 -133 -49.5 -247t-135.5 -196.5t-201.5 -131t-246.5 -48.5t-246 48.5t-201 132t-135 197.5t-49 245zM375 592q0 -76 26.5 -141.5t72.5 -114.5t107.5 -77 t131.5 -28t131 28t107 77t73 114.5t27 141.5t-27 141.5t-73 114.5t-107.5 76.5t-130.5 27.5q-70 0 -131.5 -27.5t-107.5 -76.5t-72.5 -114.5t-26.5 -141.5zM524 1331l185 395h327l-295 -395h-217z" />
<glyph unicode="&#xf4;" d="M82 592q0 129 50 242.5t136 198.5t201 133t244 48q131 0 246.5 -48t201.5 -131t135.5 -197.5t49.5 -245.5q0 -133 -49.5 -247t-135.5 -196.5t-201.5 -131t-246.5 -48.5t-246 48.5t-201 132t-135 197.5t-49 245zM317 1331l265 395h264l264 -395h-221l-174 174l-176 -174 h-222zM375 592q0 -76 26.5 -141.5t72.5 -114.5t107.5 -77t131.5 -28t131 28t107 77t73 114.5t27 141.5t-27 141.5t-73 114.5t-107.5 76.5t-130.5 27.5q-70 0 -131.5 -27.5t-107.5 -76.5t-72.5 -114.5t-26.5 -141.5z" />
<glyph unicode="&#xf5;" d="M82 592q0 129 50 242.5t136 198.5t201 133t244 48q131 0 246.5 -48t201.5 -131t135.5 -197.5t49.5 -245.5q0 -133 -49.5 -247t-135.5 -196.5t-201.5 -131t-246.5 -48.5t-246 48.5t-201 132t-135 197.5t-49 245zM295 1331q0 61 15.5 124t47 113t83 81.5t122.5 31.5 q45 0 87 -14t81 -30.5t75 -31t66 -14.5q41 0 61.5 27t27.5 63h176q-2 -63 -17.5 -125.5t-47.5 -112.5t-82 -81t-124 -31q-47 0 -88 14.5t-80 31t-75.5 30.5t-73.5 14t-55.5 -28.5t-22.5 -61.5h-176zM375 592q0 -76 26.5 -141.5t72.5 -114.5t107.5 -77t131.5 -28t131 28 t107 77t73 114.5t27 141.5t-27 141.5t-73 114.5t-107.5 76.5t-130.5 27.5q-70 0 -131.5 -27.5t-107.5 -76.5t-72.5 -114.5t-26.5 -141.5z" />
<glyph unicode="&#xf6;" d="M82 592q0 129 50 242.5t136 198.5t201 133t244 48q131 0 246.5 -48t201.5 -131t135.5 -197.5t49.5 -245.5q0 -133 -49.5 -247t-135.5 -196.5t-201.5 -131t-246.5 -48.5t-246 48.5t-201 132t-135 197.5t-49 245zM344 1331v266h266v-266h-266zM375 592q0 -76 26.5 -141.5 t72.5 -114.5t107.5 -77t131.5 -28t131 28t107 77t73 114.5t27 141.5t-27 141.5t-73 114.5t-107.5 76.5t-130.5 27.5q-70 0 -131.5 -27.5t-107.5 -76.5t-72.5 -114.5t-26.5 -141.5zM815 1331v266h266v-266h-266z" />
<glyph unicode="&#xf7;" horiz-adv-x="1312" d="M123 616v310h1087v-310h-1087zM512 170v305h305v-305h-305zM512 1071v305h305v-305h-305z" />
<glyph unicode="&#xf8;" d="M82 592q0 129 50 242.5t136 198.5t201 133t244 48q164 0 295 -69l61 86h231l-141 -193q86 -86 136.5 -198.5t50.5 -247.5q0 -133 -49.5 -247t-135.5 -196.5t-201.5 -131t-246.5 -48.5q-160 0 -291 70l-66 -86h-229l143 194q-88 86 -138 198t-50 247zM375 592 q0 -59 17.5 -113.5t47.5 -99.5l404 545q-76 29 -131 28q-70 0 -131.5 -27.5t-107.5 -76.5t-72.5 -114.5t-26.5 -141.5zM584 258q53 -27 129 -27q70 0 131 28t107 77t73 114.5t27 141.5q0 59 -17.5 113.5t-48.5 99.5z" />
<glyph unicode="&#xf9;" horiz-adv-x="1294" d="M102 465v719h295v-705q0 -66 19.5 -113t51.5 -78.5t74 -47t87 -15.5q143 0 248 99v860h294v-1184h-294v90q-29 -29 -67 -50.5t-80 -36.5t-86 -23.5t-83 -8.5q-90 0 -173 29t-146.5 88t-101.5 153.5t-38 223.5zM326 1726h329l183 -395h-217z" />
<glyph unicode="&#xfa;" horiz-adv-x="1294" d="M102 465v719h295v-705q0 -66 19.5 -113t51.5 -78.5t74 -47t87 -15.5q143 0 248 99v860h294v-1184h-294v90q-29 -29 -67 -50.5t-80 -36.5t-86 -23.5t-83 -8.5q-90 0 -173 29t-146.5 88t-101.5 153.5t-38 223.5zM432 1331l184 395h328l-295 -395h-217z" />
<glyph unicode="&#xfb;" horiz-adv-x="1294" d="M102 465v719h295v-705q0 -66 19.5 -113t51.5 -78.5t74 -47t87 -15.5q143 0 248 99v860h294v-1184h-294v90q-29 -29 -67 -50.5t-80 -36.5t-86 -23.5t-83 -8.5q-90 0 -173 29t-146.5 88t-101.5 153.5t-38 223.5zM236 1331l264 395h264l264 -395h-221l-174 174l-176 -174 h-221z" />
<glyph unicode="&#xfc;" horiz-adv-x="1294" d="M102 465v719h295v-705q0 -66 19.5 -113t51.5 -78.5t74 -47t87 -15.5q143 0 248 99v860h294v-1184h-294v90q-29 -29 -67 -50.5t-80 -36.5t-86 -23.5t-83 -8.5q-90 0 -173 29t-146.5 88t-101.5 153.5t-38 223.5zM260 1331v266h266v-266h-266zM731 1331v266h266v-266h-266z " />
<glyph unicode="&#xfd;" horiz-adv-x="1208" d="M31 1186h321l273 -762l256 762h317l-532 -1407q-59 -160 -154.5 -228.5t-230.5 -68.5q-20 0 -45 3t-48 9l-98 275q82 -35 141 -35q70 0 127.5 31.5t87.5 117.5l41 119zM401 1331l185 395h327l-295 -395h-217z" />
<glyph unicode="&#xfe;" horiz-adv-x="1323" d="M143 -514v2152h299v-514q51 43 122 68t149 25q109 0 211 -48.5t182 -132.5t128 -198.5t48 -245.5q0 -125 -42 -237.5t-117.5 -198.5t-180 -136.5t-229.5 -50.5q-78 0 -145.5 21.5t-127.5 68.5v-573h-297zM442 315q100 -88 224 -88q74 0 135 28t106 76t71 114.5t26 144.5 q0 82 -26 149.5t-72 115.5t-108.5 73.5t-138.5 25.5q-47 0 -111.5 -18t-105.5 -51v-570z" />
<glyph unicode="&#xff;" horiz-adv-x="1208" d="M31 1186h321l273 -762l256 762h317l-532 -1407q-59 -160 -154.5 -228.5t-230.5 -68.5q-20 0 -45 3t-48 9l-98 275q82 -35 141 -35q70 0 127.5 31.5t87.5 117.5l41 119zM248 1331v266h266v-266h-266zM719 1331v266h266v-266h-266z" />
<glyph unicode="&#x152;" horiz-adv-x="2684" d="M102 819q0 178 69 334t187.5 270.5t277.5 180t337 65.5q156 0 296 -49t253 -141v157h1081v-262h-770v-391h760v-256h-760v-451h770v-276h-1081v162q-113 -92 -253.5 -142.5t-295.5 -50.5q-178 0 -337 66.5t-277.5 181.5t-187.5 269.5t-69 332.5zM422 819q0 -111 43 -211 t117.5 -175t175 -119t215.5 -44q113 0 213 44t175 119t118 175t43 211q0 113 -43 212t-118 174t-175.5 119t-212.5 44q-115 0 -215.5 -44t-175 -119t-117.5 -174t-43 -212z" />
<glyph unicode="&#x153;" horiz-adv-x="2336" d="M82 592q0 129 50 242.5t136 198.5t201 133t244 48q141 0 261 -53t206 -145q86 92 205.5 145t256.5 53q125 0 240 -46t203 -128t139 -195.5t51 -250.5q0 -29 -3 -59.5t-7 -63.5h-946q35 -104 120 -177t216 -73q80 0 159.5 27.5t133.5 75.5l186 -187q-123 -92 -240.5 -130 t-248.5 -38q-141 0 -260 52.5t-205 144.5q-86 -92 -206 -144.5t-261 -52.5q-131 0 -246 48.5t-201 132t-135 197.5t-49 245zM375 592q0 -76 26.5 -141.5t72.5 -114.5t107.5 -77t131.5 -28t131 28t107 77t73 114.5t27 141.5t-27 141.5t-73 114.5t-107.5 76.5t-130.5 27.5 q-70 0 -131.5 -27.5t-107.5 -76.5t-72.5 -114.5t-26.5 -141.5zM1319 709h647q-35 113 -124 181t-202 68q-111 0 -198.5 -68.5t-122.5 -180.5z" />
<glyph unicode="&#x178;" horiz-adv-x="1662" d="M31 1636h368l426 -688l445 688h383l-668 -966v-672h-321v676zM459 1784v266h266v-266h-266zM930 1784v266h266v-266h-266z" />
<glyph unicode="&#x2c6;" horiz-adv-x="1187" d="M186 1331l265 395h264l264 -395h-221l-174 174l-176 -174h-222z" />
<glyph unicode="&#x2dc;" horiz-adv-x="1187" d="M178 1331q0 61 15.5 124t47 113t83 81.5t122.5 31.5q45 0 87 -14t81 -30.5t75 -31t67 -14.5q41 0 61.5 27t26.5 63h176q-2 -63 -17.5 -125.5t-47 -112.5t-82 -81t-123.5 -31q-47 0 -88 14.5t-80 31t-76 30.5t-74 14t-55.5 -28.5t-22.5 -61.5h-176z" />
<glyph unicode="&#x2000;" horiz-adv-x="1134" />
<glyph unicode="&#x2001;" horiz-adv-x="2269" />
<glyph unicode="&#x2002;" horiz-adv-x="1134" />
<glyph unicode="&#x2003;" horiz-adv-x="2269" />
<glyph unicode="&#x2004;" horiz-adv-x="756" />
<glyph unicode="&#x2005;" horiz-adv-x="567" />
<glyph unicode="&#x2006;" horiz-adv-x="378" />
<glyph unicode="&#x2007;" horiz-adv-x="378" />
<glyph unicode="&#x2008;" horiz-adv-x="283" />
<glyph unicode="&#x2009;" horiz-adv-x="453" />
<glyph unicode="&#x200a;" horiz-adv-x="126" />
<glyph unicode="&#x2010;" horiz-adv-x="765" d="M61 532v275h644v-275h-644z" />
<glyph unicode="&#x2011;" horiz-adv-x="765" d="M61 532v275h644v-275h-644z" />
<glyph unicode="&#x2012;" horiz-adv-x="765" d="M61 532v275h644v-275h-644z" />
<glyph unicode="&#x2013;" horiz-adv-x="1202" d="M61 532v275h1080v-275h-1080z" />
<glyph unicode="&#x2014;" horiz-adv-x="1882" d="M61 532v275h1760v-275h-1760z" />
<glyph unicode="&#x2018;" horiz-adv-x="397" d="M51 1151v305q0 49 14.5 93t42 78t69.5 53.5t97 19.5q20 0 40 -4t36 -8v-23q-59 -10 -96 -55t-37 -105q0 -10 2 -24.5t6 -24.5h131v-305h-305z" />
<glyph unicode="&#x2019;" horiz-adv-x="397" d="M51 1395v305h305v-305q0 -49 -14 -93.5t-42 -78t-70 -53t-97 -19.5q-20 0 -39.5 4t-36.5 8v23q59 10 96 55t37 105q0 10 -2 24t-6 25h-131z" />
<glyph unicode="&#x201a;" horiz-adv-x="407" d="M51 0v305h305v-305q0 -49 -14 -93t-42 -78t-70 -53.5t-97 -19.5q-20 0 -39.5 4t-36.5 9v22q59 10 96 55t37 105q0 10 -2 24.5t-6 24.5h-131z" />
<glyph unicode="&#x201c;" horiz-adv-x="827" d="M61 1151v305q0 49 14.5 93t42 78t69.5 53.5t98 19.5q20 0 39.5 -4t35.5 -8v-23q-59 -10 -96 -55t-37 -105q0 -10 2 -24.5t7 -24.5h131v-305h-306zM471 1151v305q0 49 14.5 93t42 78t69.5 53.5t97 19.5q20 0 40 -4t36 -8v-23q-59 -10 -96 -55t-37 -105q0 -10 2 -24.5 t6 -24.5h131v-305h-305z" />
<glyph unicode="&#x201d;" horiz-adv-x="827" d="M61 1395v305h306v-305q0 -49 -14.5 -93.5t-42 -78t-69.5 -53t-98 -19.5q-20 0 -39.5 4t-35.5 8v23q59 10 96 55t37 105q0 10 -2 24t-6 25h-132zM471 1395v305h305v-305q0 -49 -14 -93.5t-42 -78t-70 -53t-97 -19.5q-20 0 -39.5 4t-36.5 8v23q59 10 96 55t37 105 q0 10 -2 24t-6 25h-131z" />
<glyph unicode="&#x201e;" horiz-adv-x="817" d="M51 0v305h305v-305q0 -49 -14 -93t-42 -78t-70 -53.5t-97 -19.5q-20 0 -39.5 4t-36.5 9v22q59 10 96 55t37 105q0 10 -2 24.5t-6 24.5h-131zM461 0v305h305v-305q0 -49 -14.5 -93t-42 -78t-69.5 -53.5t-97 -19.5q-20 0 -40 4t-36 9v22q59 10 96 55t37 105q0 10 -2 24.5 t-6 24.5h-131z" />
<glyph unicode="&#x2022;" horiz-adv-x="780" d="M0 463v616h616v-616h-616z" />
<glyph unicode="&#x2026;" horiz-adv-x="1574" d="M123 0v305h305v-305h-305zM635 0v305h305v-305h-305zM1147 0v305h305v-305h-305z" />
<glyph unicode="&#x202f;" horiz-adv-x="453" />
<glyph unicode="&#x2039;" horiz-adv-x="755" d="M41 559l369 557h305l-369 -557l367 -559h-303z" />
<glyph unicode="&#x203a;" horiz-adv-x="751" d="M41 0l369 559l-369 557h305l365 -557l-365 -559h-305z" />
<glyph unicode="&#x205f;" horiz-adv-x="567" />
<glyph unicode="&#x20ac;" horiz-adv-x="1652" d="M61 528l121 207h62q-2 20 -3 40t-1 38v36.5t2 37.5h-181l121 207h103q43 127 122.5 233.5t189.5 182t244 117.5t287 42q123 0 232.5 -30.5t208.5 -84.5l-152 -264q-63 37 -136 57.5t-153 20.5q-166 0 -296 -72.5t-201 -201.5h686l-121 -207h-633q-2 -16 -2 -32.5v-35.5 q0 -45 6 -84l551 -2l-119 -207h-356q72 -117 198 -185.5t287 -68.5q76 0 154 18.5t137 57.5l152 -266q-94 -53 -206 -83t-237 -30q-147 0 -279 42t-240.5 117t-190.5 177.5t-127 222.5h-230z" />
<glyph unicode="&#x2122;" horiz-adv-x="1708" d="M61 1499v139h615v-139h-225v-680h-164v680h-226zM788 819v819h185l221 -397l233 397h179v-819h-156v547l-258 -436l-248 440v-551h-156z" />
<glyph unicode="&#xe000;" horiz-adv-x="1187" d="M0 0v1188h1188v-1188h-1188z" />
<glyph unicode="&#xfb01;" horiz-adv-x="1325" d="M41 922v266h143v84q0 223 83 340t292 117q104 0 223 -29v-270q-43 16 -75.5 21t-71.5 5q-86 0 -122 -38t-36 -142v-88h185l2 -4v-258l-2 -4h-185v-922h-293v922h-143zM874 1391v307h308v-307h-308zM879 0v1186h299v-1186h-299z" />
<glyph unicode="&#xfb02;" horiz-adv-x="1394" d="M41 922v266h143v84q0 223 83 340t292 117q104 0 223 -29v-270q-43 16 -75.5 21t-71.5 5q-86 0 -122 -38t-36 -142v-88h185l2 -4v-258l-2 -4h-185v-922h-293v922h-143zM874 295v1405h302v-1354q0 -74 29.5 -101.5t70.5 -27.5q51 0 98 31v-242q-35 -16 -79 -26.5t-91 -10.5 q-66 0 -126 17.5t-105 56.5t-72 100.5t-27 151.5z" />
</font>
</defs>
</svg>
